<?xml version="1.0" encoding="UTF-8"?>
<svg width="16px" height="17px" viewBox="0 0 16 17" version="1.1" xmlns="http://www.w3.org/2000/svg" xmlns:xlink="http://www.w3.org/1999/xlink">
    <!-- Generator: Sketch 52.2 (67145) - http://www.bohemiancoding.com/sketch -->
    <title>Icon Copy 2</title>
    <desc>Created with Sketch.</desc>
    <defs>
        <path d="M97,18.9266516 C92.5888,18.9266516 89,22.5154516 89,26.9266516 C89,31.3378516 92.5888,34.9266516 97,34.9266516 C101.4112,34.9266516 105,31.3378516 105,26.9266516 C105,22.5154516 101.4112,18.9266516 97,18.9266516 M97,33.3266516 C93.4712,33.3266516 90.6,30.4554516 90.6,26.9266516 C90.6,23.3978516 93.4712,20.5266516 97,20.5266516 C100.5288,20.5266516 103.4,23.3978516 103.4,26.9266516 C103.4,30.4554516 100.5288,33.3266516 97,33.3266516 M94.6,26.1266516 C95.0416,26.1266516 95.4,25.7690516 95.4,25.3266516 C95.4,24.8842516 95.0416,24.5266516 94.6,24.5266516 C94.1584,24.5266516 93.8,24.8842516 93.8,25.3266516 C93.8,25.7690516 94.1584,26.1266516 94.6,26.1266516 M99.4,24.5266516 C98.9584,24.5266516 98.6,24.8842516 98.6,25.3266516 C98.6,25.7690516 98.9584,26.1266516 99.4,26.1266516 C99.8416,26.1266516 100.2,25.7690516 100.2,25.3266516 C100.2,24.8842516 99.8416,24.5266516 99.4,24.5266516 M98.84336,27.9516916 C98.81856,27.9748916 98.21456,28.5268916 97.00016,28.5268916 C95.80256,28.5268916 95.19856,27.9908916 95.15776,27.9532916 C94.84496,27.6492916 94.34416,27.6508916 94.03456,27.9612916 C93.72176,28.2732916 93.72176,28.7796916 94.03456,29.0924916 C94.14016,29.1988916 95.12256,30.1268916 97.00016,30.1268916 C98.87696,30.1268916 99.86016,29.1988916 99.96576,29.0924916 C100.27456,28.7836916 100.27376,28.2892916 99.96976,27.9748916 C99.66656,27.6612916 99.16256,27.6524916 98.84336,27.9516916" id="path-1"></path>
    </defs>
    <g id="Page-1" stroke="none" stroke-width="1" fill="none" fill-rule="evenodd">
        <g id="Artboard" transform="translate(-89.000000, -18.000000)">
            <mask id="mask-2" fill="white">
                <use xlink:href="#path-1"></use>
            </mask>
            <use id="Icon-Copy-2" fill="#2A81A5" xlink:href="#path-1"></use>
        </g>
    </g>
</svg>