<?xml version="1.0" encoding="UTF-8"?>
<svg width="18px" height="19px" viewBox="0 0 18 19" version="1.1" xmlns="http://www.w3.org/2000/svg" xmlns:xlink="http://www.w3.org/1999/xlink">
    <!-- Generator: Sketch 52.2 (67145) - http://www.bohemiancoding.com/sketch -->
    <title>noun_Hand wave_837189 Copy</title>
    <desc>Created with Sketch.</desc>
    <g id="Page-1" stroke="none" stroke-width="1" fill="none" fill-rule="evenodd">
        <g id="Desktop-Copy-7" transform="translate(-758.000000, -134.000000)" fill="#2A81A5" stroke="#2A81A5" stroke-width="0.5">
            <g id="Group-8" transform="translate(590.000000, 59.000000)">
                <g id="Group-4" transform="translate(167.000000, 0.924728)">
                    <g id="noun_Hand-wave_837189-Copy" transform="translate(10.154842, 82.861582) scale(-1, 1) rotate(-6.000000) translate(-10.154842, -82.861582) translate(1.154842, 72.861582)">
                        <g id="Group" transform="translate(0.544627, 0.165742)">
                            <path d="M14.3052632,11.1131579 C14.2578947,10.8052632 14.1157895,10.5210526 13.8789474,10.3078947 C13.7131579,10.1421053 13.5473684,10.0473684 13.3342105,9.95263158 L13.6894737,9.59736842 C14.2815789,9.00526316 14.2815789,8.03421053 13.6894737,7.44210526 C13.5236842,7.27631579 13.3342105,7.15789474 13.0973684,7.08684211 C13.3105263,6.73157895 13.3578947,6.30526316 13.2394737,5.90263158 L13.2394737,5.87894737 L13.2394737,5.85526316 C13.1921053,5.76052632 13.0736842,5.42894737 12.7657895,5.16842105 C12.5052632,4.95526316 12.1736842,4.83684211 11.8184211,4.83684211 C11.5342105,4.83684211 11.2736842,4.90789474 11.0368421,5.05 C10.9657895,4.83684211 10.8473684,4.62368421 10.6815789,4.45789474 C10.3973684,4.17368421 10.0184211,4.00789474 9.61578947,4.00789474 C9.21315789,4.00789474 8.83421053,4.17368421 8.55,4.45789474 L5.42368421,7.51315789 C5.42368421,7.48947368 5.44736842,7.46578947 5.44736842,7.44210526 C5.68421053,6.87368421 5.56578947,6.23421053 5.11578947,5.78421053 C4.97368421,5.64210526 4.80789474,5.52368421 4.61842105,5.45263158 C4.42894737,5.38157895 4.23947368,5.33421053 4.02631579,5.33421053 C3.83684211,5.33421053 3.62368421,5.38157895 3.45789474,5.45263158 C3.07894737,5.61842105 2.79473684,5.90263158 2.62894737,6.28157895 L0.426315789,11.5868421 L0.426315789,11.6105263 L0.426315789,11.6342105 C-0.236842105,13.5763158 0.236842105,15.6605263 1.68157895,17.1052632 C2.67631579,18.1 4.02631579,18.6684211 5.44736842,18.6684211 C6.86842105,18.6684211 8.19473684,18.1236842 9.21315789,17.1052632 L9.54473684,16.7736842 L13.9026316,12.4157895 C14.2105263,12.0842105 14.3763158,11.5868421 14.3052632,11.1131579 Z M13.2394737,11.8 L8.90526316,16.1578947 L8.57368421,16.4894737 C7.72105263,17.3421053 6.58421053,17.7921053 5.44736842,17.7921053 C4.31052632,17.7921053 3.17368421,17.3657895 2.32105263,16.4894737 C1.11315789,15.2815789 0.710526316,13.5289474 1.25526316,11.9184211 L3.45789474,6.61315789 C3.52894737,6.44736842 3.64736842,6.32894737 3.78947368,6.28157895 C3.86052632,6.25789474 3.95526316,6.23421053 4.02631579,6.23421053 C4.09736842,6.23421053 4.19210526,6.25789474 4.26315789,6.28157895 C4.33421053,6.30526316 4.40526316,6.35263158 4.47631579,6.42368421 C4.66578947,6.61315789 4.71315789,6.87368421 4.61842105,7.11052632 C4.61842105,7.11052632 3.48157895,9.92894737 3.36315789,10.2131579 C3.29210526,10.4026316 3.36315789,10.5684211 3.50526316,10.5684211 C3.57631579,10.5684211 3.64736842,10.5210526 3.74210526,10.4263158 C4.02631579,10.1421053 5.04473684,9.12368421 5.04473684,9.12368421 L5.85,8.31842105 L9.14210526,5.02631579 C9.26052632,4.90789474 9.42631579,4.83684211 9.59210526,4.83684211 C9.75789474,4.83684211 9.92368421,4.90789474 10.0421053,5.02631579 C10.2789474,5.26315789 10.2789474,5.66578947 10.0421053,5.92631579 L6.18157895,9.78684211 L6.03947368,9.92894737 C5.87368421,10.0947368 5.87368421,10.3789474 6.03947368,10.5447368 C6.13421053,10.6394737 6.22894737,10.6631579 6.34736842,10.6631579 C6.41842105,10.6631579 6.51315789,10.6394737 6.58421053,10.5921053 C6.60789474,10.5684211 6.63157895,10.5447368 6.65526316,10.5210526 L11.3684211,5.85526316 C11.4868421,5.73684211 11.6526316,5.66578947 11.8184211,5.66578947 C11.9605263,5.66578947 12.1026316,5.71315789 12.2210526,5.80789474 C12.3394737,5.90263158 12.3868421,6.02105263 12.4342105,6.11578947 C12.5052632,6.32894737 12.4342105,6.56578947 12.2684211,6.73157895 L7.55526316,11.4447368 C7.46052632,11.5394737 7.41315789,11.6815789 7.43684211,11.8 C7.43684211,11.8947368 7.48421053,11.9894737 7.55526316,12.0605263 C7.65,12.1552632 7.74473684,12.1789474 7.86315789,12.1789474 C7.88684211,12.1789474 7.88684211,12.1789474 7.91052632,12.1789474 C8.00526316,12.1789474 8.1,12.1315789 8.19473684,12.0605263 L12.1736842,8.08157895 C12.2921053,7.96315789 12.4578947,7.89210526 12.6236842,7.89210526 C12.7894737,7.89210526 12.9552632,7.96315789 13.0736842,8.08157895 C13.3105263,8.31842105 13.3105263,8.72105263 13.0736842,8.98157895 L9.28421053,12.7473684 L9.14210526,12.8894737 L8.52631579,13.5052632 C8.52631579,13.5052632 8.52631579,13.5052632 8.52631579,13.5052632 C8.36052632,13.6710526 8.36052632,13.9552632 8.52631579,14.1210526 C8.62105263,14.2157895 8.71578947,14.2394737 8.83421053,14.2394737 C8.95263158,14.2394737 9.07105263,14.1921053 9.14210526,14.1210526 C9.14210526,14.1210526 9.14210526,14.1210526 9.14210526,14.1210526 L12.1736842,11.0894737 L12.3631579,10.9 C12.4815789,10.7815789 12.6473684,10.7105263 12.8131579,10.7105263 C12.9789474,10.7105263 13.1447368,10.7815789 13.2631579,10.9 C13.3578947,10.9947368 13.4052632,11.1131579 13.4289474,11.2315789 C13.4526316,11.4447368 13.4052632,11.6578947 13.2394737,11.8 Z" id="Shape" fill-rule="nonzero"></path>
                            <path d="M16.758905,13.7693382 C16.8565822,13.7936919 16.9347764,13.8961872 16.905552,14.0133999 C16.4671863,15.7715889 15.369434,17.2616252 13.8074394,18.2001662 C13.7586271,18.2294957 13.69515,18.2344189 13.6560792,18.2246774 C13.6170083,18.214936 13.5632727,18.1807883 13.5339433,18.131976 C13.4752845,18.0343514 13.5045089,17.9171388 13.6021336,17.8584799 C15.0665035,16.9785977 16.1008312,15.5764971 16.5148433,13.9159852 C16.5440677,13.7987726 16.6416924,13.7401138 16.758905,13.7693382 Z" id="Path"></path>
                            <path d="M15.6573569,12.6474744 C15.7550341,12.671828 15.8332283,12.7743234 15.804004,12.891536 C15.4338284,14.376229 14.5166082,15.6415291 13.21334,16.4578292 C13.1645277,16.4871586 13.1205861,16.4969526 13.0619798,16.4823404 C13.0033735,16.4677282 12.9691734,16.4384513 12.9398439,16.389639 C12.8811851,16.2920143 12.9104095,16.1748017 13.0080342,16.1161429 C14.2136777,15.3585016 15.0674734,14.1811372 15.4132953,12.7941214 C15.4425197,12.6769088 15.5401443,12.61825 15.6573569,12.6474744 Z" id="Path"></path>
                            <path d="M1.0117549,4.44152911 C0.976179585,4.45377867 0.916691839,4.45436536 0.868866967,4.43103961 C0.773217223,4.38438811 0.736468538,4.27766218 0.783120035,4.18201244 C1.52954399,2.65161654 2.82712735,1.50844223 4.42801631,0.957211958 C4.51695459,0.926588054 4.63039199,0.96711477 4.66714067,1.0738407 C4.70388936,1.18056663 4.65723786,1.27621638 4.55051193,1.31296506 C3.03856124,1.83357143 1.8176666,2.91054652 1.11789414,4.34529268 C1.09456839,4.39311755 1.06511786,4.42315477 1.0117549,4.44152911 Z" id="Path"></path>
                            <path d="M5.37952727,2.16637512 C5.48012842,2.11183878 5.5996906,2.17015315 5.61865163,2.28300386 C5.64927553,2.37194214 5.60874882,2.48537953 5.50202288,2.52212822 C4.26913659,2.98643819 3.27276999,3.90651572 2.70128915,5.07822509 C2.6779634,5.12604996 2.63072522,5.16221196 2.59514991,5.17446152 C2.5595746,5.18671108 2.50008685,5.18729777 2.45226198,5.16397202 C2.35661223,5.11732052 2.31986355,5.01059459 2.36651505,4.91494485 C2.98464738,3.64758574 4.05770269,2.66130899 5.37952727,2.16637512 Z" id="Path"></path>
                        </g>
                    </g>
                </g>
            </g>
        </g>
    </g>
</svg>