<?xml version="1.0" encoding="UTF-8"?>
<svg width="790px" height="644px" viewBox="0 0 790 644" version="1.1" xmlns="http://www.w3.org/2000/svg" xmlns:xlink="http://www.w3.org/1999/xlink">
    <!-- Generator: Sketch 52.2 (67145) - http://www.bohemiancoding.com/sketch -->
    <title>Artboard Copy 4</title>
    <desc>Created with Sketch.</desc>
    <defs>
        <path d="M102.353629,31.4480586 C93.1530279,14.466215 75.9066516,3.03374105 56.1485193,3.03374105 C26.7208206,3.03374105 2.86495734,28.3944297 2.86495734,59.6784246 C2.86495734,90.9624194 25.9374645,112.911964 53.3081263,112.911964 C80.0649218,112.911964 108.143025,91.9359428 109.389032,61.7690988 C107.288857,88.2138421 85.1105436,109.020676 58.0605173,109.020676 C29.6227349,109.020676 6.56935734,86.0241585 6.56935734,57.6565167 C6.56935734,29.2888748 29.6227349,6.29235731 58.0605173,6.29235731 C76.900876,6.29235731 93.3779034,16.3860238 102.353629,31.4480586 Z" id="path-1"></path>
    </defs>
    <g id="Page-1" stroke="none" stroke-width="1" fill="none" fill-rule="evenodd">
        <g id="Artboard-Copy-4" transform="translate(-299.000000, -145.000000)">
            <g id="background-window" opacity="0.12" transform="translate(303.494644, 144.500000)">
                <rect id="Rectangle-3-Copy-3" fill="#2A81A5" x="0.262461823" y="372.78579" width="774" height="30" rx="8"></rect>
                <rect id="water-copy-3" fill-opacity="0.3" fill="#6CB0CD" x="29.4905812" y="259.78579" width="721" height="115.485403"></rect>
                <path d="M266.490581,260.500494 C266.490581,237.856819 208.048954,234.751732 146.818822,215.78579 C123.046942,208.422486 28.7892798,202.051244 27.7128766,227.459016 C26.9530655,245.393843 27.7128766,224.612601 27.7128766,260.500494 C69.9539413,259.30768 237.718701,260.500494 266.490581,260.500494 Z" id="Oval-Copy-14" fill-opacity="0.6" fill="#6392A6"></path>
                <rect id="Rectangle-Copy-46" stroke="#2A81A5" stroke-width="12" x="33.3751828" y="6.78579048" width="711.115398" height="390" rx="6"></rect>
                <path d="M669.811729,82.7857905 L669.811729,163.78579" id="Line-35-Copy" stroke="#2A81A5" stroke-width="0.5" stroke-linecap="square"></path>
                <path d="M155.490581,243.28579 L166.490581,251.142672" id="Line-4-Copy-3" stroke="#2A81A5" stroke-width="2" stroke-linecap="square"></path>
                <path d="M155.097674,250.28579 L166.490581,243.28579" id="Line-5-Copy-3" stroke="#2A81A5" stroke-width="2" stroke-linecap="square"></path>
                <path d="M155.990581,233.28579 L166.490581,242.28579" id="Line-6-Copy-3" stroke="#2A81A5" stroke-width="2" stroke-linecap="square"></path>
                <path d="M155.490581,242.28579 L165.846821,233.28579" id="Line-7-Copy-3" stroke="#2A81A5" stroke-width="2" stroke-linecap="square"></path>
                <path d="M155.490581,213.28579 L165.490581,222.28579" id="Line-8-Copy-3" stroke="#2A81A5" stroke-width="2" stroke-linecap="square"></path>
                <path d="M165.490581,213.28579 L155.490581,224.28579" id="Line-9-Copy-3" stroke="#2A81A5" stroke-width="2" stroke-linecap="square"></path>
                <path d="M155.990581,201.78579 L165.490581,212.28579" id="Line-10-Copy-3" stroke="#2A81A5" stroke-width="2" stroke-linecap="square"></path>
                <path d="M164.490581,202.78579 L155.990581,212.28579" id="Line-11-Copy-3" stroke="#2A81A5" stroke-width="2" stroke-linecap="square"></path>
                <path d="M290.490581,232.78579 L307.990581,251.142672" id="Line-12-Copy-3" stroke="#2A81A5" stroke-width="2" stroke-linecap="square"></path>
                <path d="M305.874543,232.78579 L289.990582,250.28579" id="Line-13-Copy-3" stroke="#2A81A5" stroke-width="2" stroke-linecap="square"></path>
                <path d="M290.490581,213.28579 L305.490581,229.28579" id="Line-14-Copy-3" stroke="#2A81A5" stroke-width="2" stroke-linecap="square"></path>
                <path d="M305.874543,213.28579 L290.490581,229.28579" id="Line-15-Copy-3" stroke="#2A81A5" stroke-width="2" stroke-linecap="square"></path>
                <path d="M289.990582,183.78579 L305.874543,203.227739" id="Line-16-Copy-3" stroke="#2A81A5" stroke-width="2" stroke-linecap="square"></path>
                <path d="M305.874543,183.78579 L289.990582,201.78579" id="Line-17-Copy-3" stroke="#2A81A5" stroke-width="2" stroke-linecap="square"></path>
                <path d="M290.490581,166.28579 L305.874543,185.741343" id="Line-18-Copy-3" stroke="#2A81A5" stroke-width="2" stroke-linecap="square"></path>
                <path d="M305.874543,168.27 L290.490581,184.276907" id="Line-19-Copy-3" stroke="#2A81A5" stroke-width="2" stroke-linecap="square"></path>
                <path d="M638.990581,241.198558 L662.990581,241.198558" id="Line-20-Copy-3" stroke="#2A81A5" stroke-width="4" stroke-linecap="square" transform="translate(650.990581, 240.785790) rotate(-2.000000) translate(-650.990581, -240.785790) "></path>
                <path d="M289.990582,252.142672 L305.874543,252.142672" id="Line-34-Copy" stroke="#2A81A5" stroke-width="2" stroke-linecap="square" transform="translate(297.702607, 252.144115) rotate(-2.000000) translate(-297.702607, -252.144115) "></path>
                <path d="M291.490581,150.854677 L291.490581,154.850237 L304.490581,155.716904 L304.490581,151.721344 L291.490581,150.854677 Z" id="Rectangle-Copy-47" stroke="#2A81A5" stroke-width="2"></path>
                <rect id="Rectangle-Copy-48" fill="#2A81A5" transform="translate(651.094817, 258.744697) rotate(-1.000000) translate(-651.094817, -258.744697) " x="612.199412" y="250.744697" width="77.7908111" height="16" rx="5"></rect>
                <rect id="Rectangle-Copy-49" stroke="#2A81A5" fill="#2A81A5" transform="translate(298.490581, 260.285790) rotate(-1.000000) translate(-298.490581, -260.285790) " x="279.990581" y="256.28579" width="37" height="8" rx="3"></rect>
                <rect id="Rectangle-Copy-50" fill="#2A81A5" transform="translate(424.490581, 259.285790) rotate(-1.000000) translate(-424.490581, -259.285790) " x="396.490581" y="253.78579" width="56" height="11" rx="4"></rect>
                <path d="M289.490657,148.277064 C288.767399,148.277064 288.178882,148.859196 288.170992,149.582411 L287.012684,255.760702 C287.012609,255.768883 287.012609,255.768883 287.012595,255.777064 C287.012595,256.605491 287.684167,257.277064 288.512595,257.277064 L290.46872,257.277064 C290.476902,257.277049 290.476902,257.277049 290.485083,257.276975 C291.313461,257.267938 291.977668,256.589079 291.968631,255.760702 L290.810322,149.582411 C290.802433,148.859196 290.213916,148.277064 289.490657,148.277064 Z" id="Rectangle-Copy-51" stroke="#2A81A5" fill="#2A81A5" transform="translate(289.490657, 202.777064) rotate(1.000000) translate(-289.490657, -202.777064) "></path>
                <path d="M155.072735,184.305762 L155.072735,184.305762 C155.737555,184.305762 156.278493,184.840911 156.285647,185.505693 L157.051214,256.64892 C157.062972,257.741604 156.186709,258.636931 155.094025,258.648689 C155.086929,258.648766 155.079832,258.648804 155.072735,258.648804 L155.072735,258.648804 C153.979987,258.648804 153.094141,257.762957 153.094141,256.67021 C153.094141,256.663113 153.094179,256.656016 153.094255,256.64892 L153.859822,185.505693 C153.866976,184.840911 154.407915,184.305762 155.072735,184.305762 Z" id="Rectangle-Copy-52" fill="#2A81A5" transform="translate(155.072735, 221.477283) rotate(1.000000) translate(-155.072735, -221.477283) "></path>
                <path d="M165.299184,185.770514 L165.299184,185.770514 C165.956037,185.782201 166.485992,186.311344 166.498688,186.968178 L167.836206,256.167859 C167.857142,257.251083 166.995989,258.146182 165.912765,258.167119 C165.90013,258.167363 165.887493,258.167486 165.874855,258.167486 L165.874855,258.167486 C164.774055,258.167486 163.881681,257.275111 163.881681,256.174311 C163.881681,256.17204 163.881684,256.169769 163.881692,256.167497 L164.118401,186.926514 C164.120591,186.285785 164.641781,185.768146 165.282511,185.770337 C165.288069,185.770356 165.293627,185.770415 165.299184,185.770514 Z" id="Rectangle-Copy-53" fill="#2A81A5" transform="translate(165.858829, 221.968909) rotate(-1.000000) translate(-165.858829, -221.968909) "></path>
                <path d="M155.072736,252.644115 L166.490581,252.644115" id="Line-33-Copy" stroke="#2A81A5" stroke-width="2" stroke-linecap="square" transform="translate(160.702607, 252.644115) rotate(-2.000000) translate(-160.702607, -252.644115) "></path>
                <rect id="Rectangle-Copy-54" fill="#2A81A5" transform="translate(160.490581, 258.643142) rotate(-1.000000) translate(-160.490581, -258.643142) " x="149.490581" y="255.78579" width="22" height="5.71470374" rx="2"></rect>
                <path d="M306.374465,149.160961 C305.651165,149.160961 305.062595,149.743093 305.054641,150.466351 L303.896672,255.760569 C303.896596,255.768817 303.896596,255.768817 303.896581,255.777064 C303.896581,256.605491 304.568154,257.277064 305.396581,257.277064 L307.35235,257.277064 C307.360597,257.277049 307.360597,257.277049 307.368845,257.276974 C308.197222,257.267864 308.861369,256.588946 308.852259,255.760569 L307.69429,150.466351 C307.686336,149.743093 307.097766,149.160961 306.374465,149.160961 Z" id="Rectangle-Copy-55" stroke="#2A81A5" fill="#2A81A5" transform="translate(306.374465, 203.219013) rotate(-1.000000) translate(-306.374465, -203.219013) "></path>
                <path d="M634.990581,69.7857905 L634.990581,69.7857905 C636.932546,69.7857905 638.51544,71.3436274 638.546425,73.2853449 L641.409521,252.706013 C641.453581,255.467086 639.251007,257.741094 636.489934,257.785154 C636.463344,257.785578 636.436751,257.78579 636.410157,257.78579 L633.571005,257.78579 C630.809581,257.78579 628.571005,255.547214 628.571005,252.78579 C628.571005,252.759197 628.571217,252.732604 628.571641,252.706013 L631.434737,73.2853449 C631.465722,71.3436274 633.048616,69.7857905 634.990581,69.7857905 Z" id="Rectangle-Copy-56" fill="#2A81A5"></path>
                <path d="M661.109008,71.3889137 L661.109008,71.3889137 C662.751087,71.3889137 664.088469,72.7082508 664.110773,74.3501789 L666.553932,254.199062 C666.583939,256.407997 664.817569,258.223018 662.608634,258.253026 C662.590524,258.253272 662.572412,258.253395 662.554301,258.253395 L659.663715,258.253395 C657.454576,258.253395 655.663715,256.462534 655.663715,254.253395 C655.663715,254.235283 655.663838,254.217172 655.664084,254.199062 L658.107242,74.3501789 C658.129547,72.7082508 659.466928,71.3889137 661.109008,71.3889137 Z" id="Rectangle-Copy-57" fill="#2A81A5" transform="translate(661.109008, 164.821154) rotate(-2.000000) translate(-661.109008, -164.821154) "></path>
                <path d="M113.490581,235.001591 C219.264669,216.450516 321.598002,200.711915 420.490581,187.78579 C519.38316,174.859666 626.716494,163.192999 742.490581,152.78579 L742.490581,173.149704 C642.625408,179.898388 535.292075,189.391418 420.490581,201.628793 C305.689088,213.866167 203.355754,226.722756 113.490581,240.198558 L113.490581,235.001591 Z" id="Rectangle-Copy-58" fill="#2A81A5"></path>
                <path d="M409.337484,184.710909 L429.337484,183.944864 C431.545005,183.86031 433.403097,185.581315 433.48765,187.788836 C433.489604,187.839845 433.490581,187.890886 433.490581,187.941933 L433.490581,253.78579 C433.490581,255.994929 431.69972,257.78579 429.490581,257.78579 L409.490581,257.78579 C407.281442,257.78579 405.490581,255.994929 405.490581,253.78579 L405.490581,188.707978 C405.490581,186.558408 407.189489,184.793182 409.337484,184.710909 Z" id="Rectangle-Copy-59" fill="#2A81A5"></path>
                <polygon id="Rectangle-Copy-60" fill="#2A81A5" points="432.490581 198.78579 448.490581 197.78579 448.490581 254.462478 432.490581 257.78579"></polygon>
                <path d="M156.490581,187.890778 L156.490581,190.880803 L164.490581,191.680803 L164.490581,188.690778 L156.490581,187.890778 Z" id="Rectangle-Copy-61" stroke="#2A81A5" stroke-width="2"></path>
                <path d="M304.490581,149.78579 C332.754244,181.375193 372.087578,194.375193 422.490581,188.78579 C516.490581,178.361733 595.157248,140.028399 658.490581,73.7857905" id="Path-3-Copy-3" stroke="#2A81A5" stroke-width="2"></path>
                <path d="M291.490581,149.78579 C312.686861,185.640024 356.686861,198.640024 423.490581,188.78579 C494.157248,178.361733 565.157248,139.695066 636.490581,72.7857905" id="Path-6-Copy-3" stroke="#2A81A5" stroke-width="2"></path>
                <path d="M165.490581,187.78579 C171.783275,207.560436 185.783275,217.560436 207.490581,217.78579 C237.490581,218.097236 270.157248,195.763902 305.490581,150.78579" id="Path-10-Copy-3" stroke="#2A81A5" stroke-width="2"></path>
                <path d="M156.490581,185.78579 C164.15654,213.670994 183.823207,224.337661 215.490581,217.78579 C234.823915,213.78579 259.823915,191.119124 290.490581,149.78579" id="Path-11-Copy-3" stroke="#2A81A5" stroke-width="2"></path>
                <path d="M155.490581,186.78579 C144.823915,213.452457 131.490581,229.524391 115.490581,235.001591" id="Path-12-Copy-3" stroke="#2A81A5"></path>
                <path d="M164.490581,187.78579 C155.157248,209.73568 144.490581,224.73568 132.490581,232.78579" id="Path-13-Copy-3" stroke="#2A81A5"></path>
                <path d="M638.990581,208.28579 L662.990581,238.28579" id="Line-21-Copy-3" stroke="#2A81A5" stroke-width="3" stroke-linecap="square"></path>
                <path d="M662.990581,210.28579 L637.490581,236.28579" id="Line-22-Copy-3" stroke="#2A81A5" stroke-width="3" stroke-linecap="square"></path>
                <path d="M638.990581,180.28579 L660.490581,208.28579" id="Line-23-Copy-3" stroke="#2A81A5" stroke-width="3" stroke-linecap="square"></path>
                <path d="M661.021666,180.28579 L636.990588,208.28579" id="Line-24-Copy-3" stroke="#2A81A5" stroke-width="3" stroke-linecap="square"></path>
                <path d="M638.990581,131.916017 L661.021666,158.28579" id="Line-25-Copy-3" stroke="#2A81A5" stroke-width="3" stroke-linecap="square"></path>
                <path d="M661.021666,132.379137 L636.490581,158.28579" id="Line-26-Copy-3" stroke="#2A81A5" stroke-width="3" stroke-linecap="square"></path>
                <path d="M637.490581,104.28579 L661.021666,132.379137" id="Line-27-Copy-3" stroke="#2A81A5" stroke-width="3" stroke-linecap="square"></path>
                <path d="M638.990581,73.3626643 L638.990581,80.3589166 L655.990581,81.2089166 L655.990581,74.2126643 L638.990581,73.3626643 Z" id="Rectangle-Copy-62" stroke="#2A81A5" stroke-width="3"></path>
                <path d="M660.490581,73.7857905 C684.965265,97.3580067 714.202607,113.477448 748.202607,122.144115" id="Path-8-Copy-3" stroke="#2A81A5" stroke-width="2"></path>
                <path d="M637.490581,73.7857905 C661.965265,102.024673 698.202607,121.477448 746.202607,132.144115" id="Path-9-Copy-3" stroke="#2A81A5" stroke-width="2"></path>
                <path d="M658.490581,104.28579 L636.990588,128.28579" id="Line-28-Copy-3" stroke="#2A81A5" stroke-width="3" stroke-linecap="square"></path>
                <path d="M638.990581,82.7857905 L657.490581,102.964953" id="Line-29-Copy-3" stroke="#2A81A5" stroke-width="3" stroke-linecap="square"></path>
                <path d="M658.490581,82.7857905 L636.990588,101.78579" id="Line-30-Copy-3" stroke="#2A81A5" stroke-width="3" stroke-linecap="square"></path>
                <path d="M678.702607,88.6441148 L678.702607,164.821154" id="Line-36-Copy" stroke="#2A81A5" stroke-width="0.5" stroke-linecap="square"></path>
                <path d="M688.702607,96.6441148 L688.702607,166.644115" id="Line-37-Copy" stroke="#2A81A5" stroke-width="0.5" stroke-linecap="square"></path>
                <path d="M697.702607,101.78579 L697.702607,160.644115" id="Line-38-Copy" stroke="#2A81A5" stroke-width="0.5" stroke-linecap="square"></path>
                <path d="M706.702607,106.644115 L706.702607,160.644115" id="Line-39-Copy" stroke="#2A81A5" stroke-width="0.5" stroke-linecap="square"></path>
                <path d="M715.702607,110.644115 L715.702607,158.28579" id="Line-40-Copy" stroke="#2A81A5" stroke-width="0.5" stroke-linecap="square"></path>
                <path d="M724.702607,114.644115 L724.702607,158.28579" id="Line-41-Copy" stroke="#2A81A5" stroke-width="0.5" stroke-linecap="square"></path>
                <path d="M733.702607,118.332464 L733.702607,155.644115" id="Line-42-Copy" stroke="#2A81A5" stroke-width="0.5" stroke-linecap="square"></path>
                <path d="M624.702607,82.7857905 L624.702607,168.644115" id="Line-43-Copy" stroke="#2A81A5" stroke-width="0.5" stroke-linecap="square"></path>
                <path d="M615.702607,90.6441148 L615.702607,175.644115" id="Line-44-Copy" stroke="#2A81A5" stroke-width="0.5" stroke-linecap="square"></path>
                <path d="M607.702607,97.9649526 L607.702607,168.644115" id="Line-45-Copy" stroke="#2A81A5" stroke-width="0.5" stroke-linecap="square"></path>
                <path d="M599.702607,104.28579 L599.702607,168.644115" id="Line-46-Copy" stroke="#2A81A5" stroke-width="0.5" stroke-linecap="square"></path>
                <path d="M590.702607,111.644115 L590.702607,172.644115" id="Line-47-Copy" stroke="#2A81A5" stroke-width="0.5" stroke-linecap="square"></path>
                <path d="M582.702607,118.332464 L582.702607,170.644115" id="Line-48-Copy" stroke="#2A81A5" stroke-width="0.5" stroke-linecap="square"></path>
                <path d="M574.702607,123.28579 L574.702607,172.644115" id="Line-49-Copy" stroke="#2A81A5" stroke-width="0.5" stroke-linecap="square"></path>
                <path d="M566.702607,129.28579 L566.702607,173.644115" id="Line-50-Copy" stroke="#2A81A5" stroke-width="0.5" stroke-linecap="square"></path>
                <path d="M559.702607,134.464953 L559.702607,173.644115" id="Line-51-Copy" stroke="#2A81A5" stroke-width="0.5" stroke-linecap="square"></path>
                <path d="M552.702607,138.644115 L552.702607,177.644115" id="Line-52-Copy" stroke="#2A81A5" stroke-width="0.5" stroke-linecap="square"></path>
                <path d="M545.702607,143.144115 L545.702607,174.644115" id="Line-53-Copy" stroke="#2A81A5" stroke-width="0.5" stroke-linecap="square"></path>
                <path d="M538.702607,147.964953 L538.702607,174.644115" id="Line-54-Copy" stroke="#2A81A5" stroke-width="0.5" stroke-linecap="square"></path>
                <path d="M531.702607,151.464953 L531.702607,177.644115" id="Line-55-Copy" stroke="#2A81A5" stroke-linecap="square"></path>
                <path d="M524.702607,155.644115 L524.702607,177.644115" id="Line-56-Copy" stroke="#2A81A5" stroke-linecap="square"></path>
                <path d="M517.702607,158.28579 L517.702607,177.644115" id="Line-57-Copy" stroke="#2A81A5" stroke-linecap="square"></path>
                <path d="M509.702607,162.304534 L509.702607,181.28579" id="Line-58-Copy" stroke="#2A81A5" stroke-linecap="square"></path>
                <path d="M496.195614,167.964953 L496.195614,181.28579" id="Line-60-Copy" stroke="#2A81A5" stroke-linecap="square"></path>
                <path d="M488.702607,170.644115 L488.702607,181.28579" id="Line-61-Copy" stroke="#2A81A5" stroke-linecap="square"></path>
                <path d="M481.490581,173.644115 L481.490581,181.28579" id="Line-62-Copy" stroke="#2A81A5" stroke-linecap="square"></path>
                <path d="M503.702607,164.821154 L503.702607,180.28579" id="Line-59-Copy" stroke="#2A81A5" stroke-linecap="square"></path>
                <path d="M377.702607,188.644115 L377.702607,195.644115" id="Line-63-Copy" stroke="#2A81A5" stroke-width="0.5" stroke-linecap="square"></path>
                <path d="M372.702607,188.644115 L372.702607,197.78579" id="Line-64-Copy" stroke="#2A81A5" stroke-width="0.5" stroke-linecap="square"></path>
                <path d="M367.702607,186.644115 L367.702607,197.78579" id="Line-65-Copy" stroke="#2A81A5" stroke-width="0.5" stroke-linecap="square"></path>
                <path d="M362.702607,185.741343 L362.702607,199.644115" id="Line-66-Copy" stroke="#2A81A5" stroke-width="0.5" stroke-linecap="square"></path>
                <path d="M358.702607,183.78579 L358.702607,197.78579" id="Line-67-Copy" stroke="#2A81A5" stroke-width="0.5" stroke-linecap="square"></path>
                <path d="M353.702607,182.644115 L353.702607,201.78579" id="Line-68-Copy" stroke="#2A81A5" stroke-width="0.5" stroke-linecap="square"></path>
                <path d="M348.702607,181.644115 L348.702607,201.78579" id="Line-69-Copy" stroke="#2A81A5" stroke-width="0.5" stroke-linecap="square"></path>
                <path d="M343.702607,178.644115 L343.702607,200.644115" id="Line-70-Copy" stroke="#2A81A5" stroke-width="0.5" stroke-linecap="square"></path>
                <path d="M338.702607,176.273453 L338.702607,201.78579" id="Line-71-Copy" stroke="#2A81A5" stroke-width="0.5" stroke-linecap="square"></path>
                <path d="M333.702607,173.644115 L333.702607,201.78579" id="Line-72-Copy" stroke="#2A81A5" stroke-width="0.5" stroke-linecap="square"></path>
                <path d="M328.702607,170.644115 L328.702607,204.644115" id="Line-73-Copy" stroke="#2A81A5" stroke-width="0.5" stroke-linecap="square"></path>
                <path d="M323.702607,167.644115 L323.702607,204.644115" id="Line-74-Copy" stroke="#2A81A5" stroke-width="0.5" stroke-linecap="square"></path>
                <path d="M318.702607,163.644115 L318.702607,201.78579" id="Line-75-Copy" stroke="#2A81A5" stroke-width="0.5" stroke-linecap="square"></path>
                <path d="M314.702607,159.644115 L314.702607,204.644115" id="Line-76-Copy" stroke="#2A81A5" stroke-width="0.5" stroke-linecap="square"></path>
                <path d="M310.304068,156.78579 L310.304068,203.227739" id="Line-77-Copy" stroke="#2A81A5" stroke-width="0.5" stroke-linecap="square"></path>
                <path d="M285.553166,155.644115 L285.553166,209.250668" id="Line-78-Copy" stroke="#2A81A5" stroke-width="0.5" stroke-linecap="square"></path>
                <path d="M280.702607,163.644115 L280.702607,209.250668" id="Line-79-Copy" stroke="#2A81A5" stroke-width="0.5" stroke-linecap="square"></path>
                <path d="M275.702607,168.27 L275.702607,210.644115" id="Line-80-Copy" stroke="#2A81A5" stroke-width="0.5" stroke-linecap="square"></path>
                <path d="M271.702607,173.644115 L271.702607,209.250668" id="Line-81-Copy" stroke="#2A81A5" stroke-width="0.5" stroke-linecap="square"></path>
                <path d="M266.490581,180.006765 L266.490581,210.644115" id="Line-82-Copy" stroke="#2A81A5" stroke-linecap="square"></path>
                <path d="M261.702607,185.741343 L261.702607,210.644115" id="Line-83-Copy" stroke="#2A81A5" stroke-linecap="square"></path>
                <path d="M256.702607,190.046243 L256.702607,213.28579" id="Line-84-Copy" stroke="#2A81A5" stroke-width="0.5" stroke-linecap="square"></path>
                <path d="M251.702607,195.32544 L251.702607,213.28579" id="Line-85-Copy" stroke="#2A81A5" stroke-width="0.5" stroke-linecap="square"></path>
                <path d="M245.702607,200.644115 L245.702607,216.644115" id="Line-86-Copy" stroke="#2A81A5" stroke-width="0.5" stroke-linecap="square"></path>
                <path d="M240.702607,204.644115 L240.702607,214.644115" id="Line-87-Copy" stroke="#2A81A5" stroke-width="0.5" stroke-linecap="square"></path>
                <path d="M235.490581,208.644115 L235.490581,216.644115" id="Line-88-Copy" stroke="#2A81A5" stroke-width="0.5" stroke-linecap="square"></path>
                <path d="M382.702607,189.029622 L382.702607,195.32544" id="Line-89-Copy" stroke="#2A81A5" stroke-width="0.5" stroke-linecap="square"></path>
                <path d="M299.182562,159.644115 L299.182562,206.644115" id="Line-90-Copy" stroke="#2A81A5" stroke-width="0.5" stroke-linecap="square"></path>
                <path d="M294.428151,164.821154 L294.428151,208.644115" id="Line-91-Copy" stroke="#2A81A5" stroke-width="0.5" stroke-linecap="square"></path>
                <path d="M650.006124,86.6441148 L650.006124,168.644115" id="Line-92-Copy" stroke="#2A81A5" stroke-width="0.5" stroke-linecap="square"></path>
                <path d="M643.702607,80.6441148 L643.702607,168.644115" id="Line-93-Copy" stroke="#2A81A5" stroke-width="0.5" stroke-linecap="square"></path>
                <path d="M193.702607,216.644115 L193.702607,222.28579" id="Line-94-Copy" stroke="#2A81A5" stroke-width="0.5" stroke-linecap="square"></path>
                <path d="M189.702607,214.644115 L189.702607,224.28579" id="Line-95-Copy" stroke="#2A81A5" stroke-width="0.5" stroke-linecap="square"></path>
                <path d="M184.702607,212.644115 L184.702607,224.28579" id="Line-96-Copy" stroke="#2A81A5" stroke-width="0.5" stroke-linecap="square"></path>
                <path d="M180.702607,209.644115 L180.702607,227.644115" id="Line-97-Copy" stroke="#2A81A5" stroke-width="0.5" stroke-linecap="square"></path>
                <path d="M176.702607,206.644115 L176.702607,224.28579" id="Line-98-Copy" stroke="#2A81A5" stroke-width="0.5" stroke-linecap="square"></path>
                <path d="M172.538774,201.78579 L172.538774,229.28579" id="Line-99-Copy" stroke="#2A81A5" stroke-width="0.5" stroke-linecap="square"></path>
                <path d="M168.46803,196.492174 L168.46803,227.644115" id="Line-100-Copy" stroke="#2A81A5" stroke-width="0.5" stroke-linecap="square"></path>
                <path d="M160.668701,198.192729 L160.240581,227.644115" id="Line-101-Copy" stroke="#2A81A5" stroke-width="0.5" stroke-linecap="square"></path>
                <path d="M151.702607,196.492174 L151.702607,230.644115" id="Line-102-Copy" stroke="#2A81A5" stroke-width="0.5" stroke-linecap="square"></path>
                <path d="M148.490581,202.777064 L148.490581,230.644115" id="Line-103-Copy" stroke="#2A81A5" stroke-width="0.5" stroke-linecap="square"></path>
                <path d="M144.702607,209.250668 L144.702607,230.644115" id="Line-104-Copy" stroke="#2A81A5" stroke-width="0.5" stroke-linecap="square"></path>
                <path d="M140.702607,214.644115 L140.702607,230.644115" id="Line-105-Copy" stroke="#2A81A5" stroke-width="0.5" stroke-linecap="square"></path>
                <path d="M136.702607,219.655592 L136.702607,233.28579" id="Line-106-Copy" stroke="#2A81A5" stroke-width="0.5" stroke-linecap="square"></path>
                <path d="M132.490581,224.28579 L132.490581,231.644115" id="Line-107-Copy" stroke="#2A81A5" stroke-width="0.5" stroke-linecap="square"></path>
                <path d="M127.702607,227.964953 L127.702607,234.875581" id="Line-108-Copy" stroke="#2A81A5" stroke-width="0.5" stroke-linecap="square"></path>
                <path d="M509.702607,18.5 L509.702607,367.5" id="Line-109" stroke="#2A81A5" stroke-width="12" stroke-linecap="square"></path>
                <path d="M265.040489,18.5 L265.040489,367.5" id="Line-109-Copy" stroke="#2A81A5" stroke-width="12" stroke-linecap="square"></path>
            </g>
            <ellipse id="bottom-shadow" fill-opacity="0.1" fill="#47677A" cx="689" cy="742.103597" rx="319" ry="28.1131906"></ellipse>
            <g id="chair" transform="translate(648.000000, 367.000000)">
                <path d="M31.0225487,109.5 C18.5961418,109.5 8.52254869,119.573593 8.52254869,132 L8.52254869,208 C8.52254869,220.426407 18.5961418,230.5 31.0225487,230.5 L187.022549,230.5 C199.448956,230.5 209.522549,220.426407 209.522549,208 L209.522549,132 C209.522549,119.573593 199.448956,109.5 187.022549,109.5 L31.0225487,109.5 Z M35.7897829,107.5 L181.789783,107.5 C189.245627,107.5 195.289783,113.544156 195.289783,121 L195.289783,206.268131 C195.289783,213.723975 189.245627,219.768131 181.789783,219.768131 L35.7897829,219.768131 C28.3339388,219.768131 22.2897829,213.723975 22.2897829,206.268131 L22.2897829,121 C22.2897829,113.544156 28.3339388,107.5 35.7897829,107.5 Z" id="Combined-Shape" stroke="#4B6575" stroke-width="5" fill="#EBEBEB"></path>
                <rect id="Rectangle" fill="#CACACA" x="11" y="140" width="4.5" height="56"></rect>
                <rect id="Rectangle-Copy-18" fill="#CACACA" x="198" y="140" width="4.5" height="56"></rect>
                <rect id="Rectangle" stroke="#4B6575" stroke-width="5" fill="#EBEBEB" x="98.5225487" y="252.5" width="21" height="68.847308" rx="10.5"></rect>
                <rect id="Rectangle" fill="#C0C0C0" x="101" y="258" width="16" height="14.7010493"></rect>
                <rect id="Rectangle" stroke="#4B6575" stroke-width="5" fill="#617886" x="2.5" y="193.5" width="213.045097" height="41" rx="20.5"></rect>
                <path d="M5.20286317,213 C9.06762106,221.290912 17.3990835,225.624246 30.1972504,226 C112.98209,224.666667 165.315423,224 187.19725,224 C206,224 211.684005,213.155472 213.000169,212 C213.025404,220.453287 210.19725,230 195.471459,232 C144.19725,232 26.2395944,233 18.1972504,231 C10.1549064,229 5.20286317,221 5.20286317,213 Z" id="Rectangle" fill="#5C6F7B"></path>
                <rect id="Rectangle" stroke="#4B6575" stroke-width="5" fill="#EBEBEB" x="29.0225487" y="235.5" width="160" height="20" rx="10"></rect>
                <path d="M31.5225487,237.75 L186.522549,237.75 L186.522549,241.560986 C186.522549,243.21784 185.179403,244.560986 183.522549,244.560986 L34.5225487,244.560986 C32.8656944,244.560986 31.5225487,243.21784 31.5225487,241.560986 L31.5225487,237.75 Z" id="Rectangle-Copy-8" fill="#C0C0C0" transform="translate(109.022549, 241.155493) scale(1, -1) translate(-109.022549, -241.155493) "></path>
                <path d="M127.412497,205.374938 L127.412497,205.374938 C133.55864,203.641646 139.946184,207.218969 141.679476,213.365112 C142.019451,214.570641 142.161288,215.823402 142.099443,217.074425 L135.805691,344.386437 C135.774888,345.009518 135.244811,345.489655 134.62173,345.458853 C134.451273,345.450426 134.284942,345.403484 134.13523,345.321553 L134.13523,345.321553 C133.166059,344.791165 132.579698,343.758761 132.620578,342.654708 C135.313129,269.937182 136.313624,229.626156 135.622068,221.721631 C134.924822,213.752074 132.188298,208.303176 127.412497,205.374938 Z" id="Rectangle-Copy-4" fill="#EFDFCD" transform="translate(134.763022, 275.199084) scale(-1, 1) rotate(5.000000) translate(-134.763022, -275.199084) "></path>
                <circle id="Oval" stroke="#4B6575" stroke-width="5" fill="#4B6575" cx="27.50451" cy="361.485595" r="12.5"></circle>
                <circle id="Oval-Copy-11" stroke="#4B6575" stroke-width="5" fill="#4B6575" cx="190.813496" cy="361.485595" r="12.5"></circle>
                <rect id="Rectangle" stroke="#4B6575" stroke-width="5" fill="#617886" x="3.5" y="127.5" width="24" height="10" rx="5"></rect>
                <rect id="Rectangle" stroke="#4B6575" stroke-width="5" fill="#617886" x="190.525626" y="127.5" width="24" height="10" rx="5"></rect>
                <path d="M109.549266,316.150089 L109.495835,316.150089 C108.818452,316.142851 108.138687,316.217137 107.466729,316.374083 L28.8548381,334.735048 C28.5875669,334.797474 28.3238987,334.874427 28.0650077,334.965565 C24.1319747,336.35013 22.0660328,340.660895 23.4505973,344.593928 L23.8983459,345.865815 C25.3383021,349.956195 29.6265257,352.306827 33.8493101,351.320533 L109.522549,333.645933 L185.195787,351.320533 C189.418572,352.306827 193.706795,349.956195 195.146751,345.865815 L195.5945,344.593928 C196.979065,340.660895 194.913123,336.35013 190.98009,334.965565 C190.721199,334.874427 190.45753,334.797474 190.190259,334.735048 L111.578368,316.374083 C110.906411,316.217137 110.226648,316.142851 109.549266,316.150089 Z" id="Combined-Shape" stroke="#4B6575" stroke-width="5" fill="#EBEBEB"></path>
                <path d="M196.490618,336.918081 C197.636181,339.221238 197.885001,341.967386 196.963368,344.585403 L196.585277,345.659418 C194.721805,350.952851 189.172339,353.994845 183.707559,352.718466 L110.188086,335.546909 L36.6686124,352.718466 C31.2038326,353.994845 25.6543668,350.952851 23.7908941,345.659418 L23.4128032,344.585403 C22.4911701,341.967386 22.7399908,339.221238 23.8855539,336.918081 C25.8364026,342.051487 31.2934728,344.973909 36.6686124,343.718466 L110.188086,326.546909 L183.707559,343.718466 C189.082699,344.973909 194.539769,342.051487 196.490618,336.918081 Z" id="shadow" fill="#C0C0C0"></path>
                <path d="M109.549266,316.150089 L109.495835,316.150089 C108.818452,316.142851 108.138687,316.217137 107.466729,316.374083 L28.8548381,334.735048 C28.5875669,334.797474 28.3238987,334.874427 28.0650077,334.965565 C24.1319747,336.35013 22.0660328,340.660895 23.4505973,344.593928 L23.8983459,345.865815 C25.3383021,349.956195 29.6265257,352.306827 33.8493101,351.320533 L109.522549,333.645933 L185.195787,351.320533 C189.418572,352.306827 193.706795,349.956195 195.146751,345.865815 L195.5945,344.593928 C196.979065,340.660895 194.913123,336.35013 190.98009,334.965565 C190.721199,334.874427 190.45753,334.797474 190.190259,334.735048 L111.578368,316.374083 C110.906411,316.217137 110.226648,316.142851 109.549266,316.150089 Z" id="Combined-Shape-Copy-3" stroke="#4B6575" stroke-width="5"></path>
            </g>
            <g id="head" transform="translate(687.320097, 203.484209)">
                <g id="change-hair-color" transform="translate(78.321390, 108.995540) rotate(4.000000) translate(-78.321390, -108.995540) translate(7.567350, 5.087120)">
                    <ellipse id="Oval" fill="#FAEBDA" cx="68.90184" cy="142.06374" rx="17.04024" ry="19.4481"></ellipse>
                    <ellipse id="Oval" stroke="#979797" stroke-width="0.5" fill="#FAEBDA" cx="70.75404" cy="80.1420353" rx="54.4462502" ry="55.93644"></ellipse>
                    <path d="M98.3985786,40.0540023 L105.738793,45.0348622 L126.853873,73.5587422 C123.915424,84.412151 121.581839,89.5918954 119.853119,89.0979754 C119.360901,88.9573415 119.2853,85.5672149 116.124803,83.2946721 C112.964305,81.0221294 108.590284,78.720662 100.552633,67.6317022 C95.8775395,61.1818165 93.6433278,54.3553373 93.8499979,47.1522646 C90.3149787,51.8263281 85.8812704,56.1832073 80.5488732,60.2229022 C68.3243532,69.4839022 51.6545532,73.7823754 41.2822332,75.4109422 C34.5506707,76.4678706 29.9182754,77.8122636 25.9290049,80.6476522 C23.7714127,82.1811688 22.3922955,87.5376507 22.1322414,89.0979754 C22.1322414,83.6631624 17.8409556,76.6356024 21.11508,72.8298732 C31.2309284,61.0715602 58.6614574,58.9806009 61.2859932,58.0641574 C64.2495132,57.0293463 78.6966732,50.2868658 97.9595532,33.8362669 C99.4241119,32.5855263 99.6710719,34.4661914 98.7004332,39.4782622 C98.6011399,39.6706429 98.5005211,39.8625559 98.3985767,40.0540009 Z" id="Path-10" fill="#E7D4C1"></path>
                    <g id="Group-8" stroke-width="1" transform="translate(-1.852200, 4.074840)">
                        <path d="M60.4624327,115.347571 C62.6871416,117.83299 65.4282381,118.986158 68.6857225,118.807074 C71.9432069,118.627991 75.1157821,117.149712 78.2034483,114.37224 C75.7678555,118.312968 72.8110196,120.443368 69.3329405,120.76344 C65.8548615,121.083512 62.8980255,119.278222 60.4624327,115.347571 Z" id="Path-16" fill="#F3E2CF"></path>
                        <ellipse id="Oval" fill-opacity="0.7" fill="#F5CECA" cx="100.75968" cy="101.135846" rx="9.63144" ry="7.4088"></ellipse>
                        <ellipse id="Oval-Copy-5" fill-opacity="0.7" fill="#F5CECA" cx="41.11884" cy="100.303845" rx="9.63144" ry="7.4088"></ellipse>
                        <ellipse id="Oval" stroke="#4B6575" stroke-width="5.5566" cx="72.5464419" cy="74.9450926" rx="53.2835619" ry="56.7847405"></ellipse>
                        <g id="Oval" transform="translate(16.299360, 24.819480)">
                            <g>
                                <mask id="mask-2" fill="white">
                                    <use xlink:href="#path-1"></use>
                                </mask>
                                <use id="Combined-Shape" fill="#E7D4C1" transform="translate(56.126994, 57.972853) rotate(-3.000000) translate(-56.126994, -57.972853) " xlink:href="#path-1"></use>
                            </g>
                        </g>
                        <ellipse id="Oval" fill="#4B6575" cx="45.2459252" cy="85.142594" rx="5.60884519" ry="7.8986986"></ellipse>
                        <ellipse id="Oval-Copy-4" fill="#4B6575" transform="translate(95.211609, 86.363052) rotate(3.000000) translate(-95.211609, -86.363052) " cx="95.2116086" cy="86.3630522" rx="5.60991365" ry="7.89738866"></ellipse>
                        <path d="M105.20496,11.6952622 C116.536018,11.6952622 125.728002,18.4866622 132.780913,32.0694622 C143.36028,52.4436622 141.418515,59.0013737 140.189713,83.1901822 C139.484349,97.0751807 137.022954,106.02399 140.189713,122.827262 C143.97949,142.936356 137.55853,161.211396 120.926833,177.652382 C115.369172,170.210448 109.318652,165.271248 102.775273,162.834782 C92.9602058,159.180083 87.8501839,159.259628 84.83076,153.44279 C82.8178107,149.564897 81.4595307,142.064058 80.75592,130.940271 C95.4354074,126.202899 105.816275,119.623215 111.898524,111.20122 C117.980773,102.779225 121.553145,91.5937621 122.61564,77.6448325 C118.17036,76.0111624 112.3668,69.8126232 105.20496,59.0492148 C98.04312,48.2858064 98.04312,32.5011555 105.20496,11.6952622 Z" id="Path-3" stroke="#4B6575" stroke-width="5.18616" fill="#587785"></path>
                        <path d="M107.05716,16.4537734 C101.979929,4.30973583 88.4515932,-1.10431457 66.4721532,0.211622185 C33.5029932,2.18552732 13.6626265,24.2902222 7.94263324,48.4550059 C2.22264,72.6197897 10.5357132,79.9725986 10.5357132,103.25213 C10.5357132,126.531662 -16.5064068,139.350255 16.8331932,181.727222 C16.8331932,181.727222 23.5011132,171.678592 31.6507932,166.385748 C39.8004732,161.092905 47.8372328,163.098539 51.6545532,158.462739 C57.2987215,151.608394 60.0842971,142.171051 60.01128,130.150709 C43.46496,123.834213 32.7222,114.622655 27.783,102.516037 C22.8438,90.4094191 21.609,80.6636756 24.0786,73.2788069 C29.0178,69.6098069 36.92052,66.8541511 47.78676,65.0118397 C64.08612,62.2483725 72.9819872,56.845639 84.08988,48.4550059 C91.4951419,42.8612506 99.1509019,32.194173 107.05716,16.4537734 Z" id="Path-2" stroke="#4B6575" stroke-width="5.18616" fill="#587785"></path>
                        <path d="M68.90184,94.09176 C66.6792,93.9178231 65.56788,95.0151977 65.56788,97.3838839 C65.56788,99.75257 67.17312,100.805319 70.3836,100.542132" id="Path-4" stroke="#4B6575" stroke-width="2.96352" stroke-linecap="round"></path>
                        <path d="M60.01128,111.990782 C61.98696,115.412217 64.95048,117.122935 68.90184,117.122935 C72.8532,117.122935 75.81672,115.412217 77.7924,111.990782" id="Path-5" stroke="#4B6575" stroke-width="4.07484" stroke-linecap="round"></path>
                    </g>
                    <path d="M17.9445132,86.9353534 C19.4262732,100.641633 22.7602332,108.791313 27.2055132,115.459233 C31.6507932,122.127153 39.8501275,130.143907 54.6677275,135.700507 C54.6677275,137.923147 54.4727572,139.982485 54.0828166,141.87852 C46.6563412,140.116255 39.4259601,135.899884 32.3916732,129.229409 C26.4646332,123.608913 20.5033903,113.917353 18.6853932,104.346033 C17.6150951,98.7111696 17.2036332,90.2893599 17.9445132,86.9353534 Z" id="Path-12" fill="#4F7180"></path>
                    <path d="M123.320994,84.8044808 C122.929865,103.59096 119.770781,116.81208 113.843741,124.46784 C104.953181,135.95148 86.5942852,141.719702 81.7785652,141.719702 C81.5316052,140.237942 81.3761343,138.562161 81.3121525,136.69236 C94.3925293,132.25555 104.143198,126.456225 110.564158,119.294385 C116.985118,112.132545 121.237396,100.63591 123.320994,84.8044808 Z" id="Path-13" fill="#4F7180"></path>
                    <path d="M55.0014711,136.278483 C54.5680545,140.527994 56.5086802,146.380471 50.9520802,155.887433 C47.6181202,161.073593 44.9964647,162.834782 44.2555847,163.205222 C48.5480451,158.389502 48.5480451,153.943864 49.0744311,148.132563 C49.4253552,144.258362 50.0512382,139.929892 50.9520802,135.147154 C52.4168742,135.901373 53.7666711,136.278483 55.0014711,136.278483 Z" id="Path-14" fill="#4F7180"></path>
                    <path d="M81.68202,139.480374 C82.2380646,145.565756 82.8865269,149.719767 83.6274069,151.942407 C84.7387269,155.276367 85.7633439,158.934526 90.5889583,160.835208 C88.2497949,157.377768 86.7008355,153.22301 85.94208,148.370934 L84.388997,138.497802 L81.68202,139.480374 Z" id="Path-15" fill="#4F7180"></path>
                    <path d="M32.6003952,75.0525132 C29.8492306,77.017181 28.6076072,80.6828554 28.8755248,86.0495364 C29.2702719,93.9567476 31.9436351,103.80999 36.0502784,111.375887 C41.5567642,121.520793 50.2846448,128.477857 62.23392,132.24708 C46.42848,128.04876 35.6399875,120.173046 29.8684425,108.619938 C24.0968975,97.06683 22.4321042,87.2009217 24.8740625,79.022213 L32.6003952,75.0525132 Z" id="Path-17" fill-opacity="0.8" fill="#DAC4B0"></path>
                    <path d="M117.723281,83.7001932 C116.553958,96.0963956 113.276141,106.199706 107.889829,114.010125 C102.503518,121.820543 92.3718845,128.01541 77.4949289,132.594726 C89.9650433,127.634859 98.7571807,121.439992 103.871341,114.010125 C108.985502,106.580257 111.702518,94.8971942 112.02239,78.9609359 L117.723281,83.7001932 Z" id="Path-18" fill-opacity="0.6" fill="#DAC4B0"></path>
                </g>
                <path d="M67.5438573,64.289912 C86.220239,64.289912 99.2010827,58.2650198 104.866959,50.6339721 C118.444051,32.3477547 84.9543561,17.5350816 60.6441439,17.5350816 C36.3339317,17.5350816 10.4116099,40.3722081 5.54366688,66.3890874 C15.0292517,57.2627815 22.6380987,55.515102 33.9227915,58.0884024 C43.850535,60.3522714 56.1067016,64.289912 67.5438573,64.289912 Z" id="Oval" fill="#688795" transform="translate(56.771662, 41.962085) rotate(-22.000000) translate(-56.771662, -41.962085) "></path>
                <path d="M19.8529318,100.087643 C19.6999177,111.687119 19.0732832,119.30707 17.9730282,122.947495 C15.4447846,131.312721 10.2211962,138.870693 10.0514571,145.182102 C9.77091603,155.613462 13.0380743,165.729527 19.8529318,175.530298 C17.2441377,164.5627 15.9397407,155.780555 15.9397407,149.183865 C15.9397407,139.28883 20.2995361,134.879282 22.3160172,125.889652 C23.660338,119.896565 22.8393095,111.295895 19.8529318,100.087643 Z" id="Path-4" fill="#688795" transform="translate(16.488393, 137.808970) rotate(4.000000) translate(-16.488393, -137.808970) "></path>
                <path d="M133.912188,96.0088488 C138.61741,87.6218281 140.946258,82.6877057 143.250164,76.532212 C145.75945,69.8279928 146.522761,61.8839277 146.20853,55.9754522 C145.605789,44.6420969 141.615943,31.1062713 133.474385,31.2571138 C125.332827,31.4079563 119.741237,44.3919371 119.412276,56.879287 C119.292186,61.4379066 119.270036,67.1573866 128.769118,79.8872259 C135.073114,88.3352909 133.827502,96.1598021 133.912188,96.0088488 Z" id="Oval" fill="#688795" transform="translate(132.831948, 63.633431) rotate(-15.000000) translate(-132.831948, -63.633431) "></path>
                <path d="M137.41656,98.4908396 C135.853533,108.576967 135.310144,117.746883 135.786394,126.000587 C136.500769,138.381143 139.406077,135.894118 139.406077,148.733114 C139.406077,157.292445 134.751188,168.8089 125.441411,183.28248 C131.612938,163.991348 134.373847,151.384852 133.724138,145.462991 C132.749574,136.5802 129.552049,132.131223 130.802022,119.469333 C131.635337,111.028073 133.840183,104.035241 137.41656,98.4908396 Z" id="Path-5" fill="#688795" transform="translate(132.423744, 140.886660) rotate(4.000000) translate(-132.423744, -140.886660) "></path>
            </g>
            <g id="purple-shirt" transform="translate(766.133071, 440.064133) rotate(2.000000) translate(-766.133071, -440.064133) translate(677.633071, 366.564133)">
                <path d="M65.9980445,0.439166748 C75.3190638,6.44638892 84.5047156,6.93 93.555,1.89 C132.3,7.56 153.94504,52.018255 158.979892,63.9703486 C164.014743,75.9224421 180.845439,87.4737345 174.716905,101.694101 C170.631217,111.174346 113.022248,115.706312 1.89,115.29 C-0.63,98.28 1.26,77.175 7.56,51.975 C13.86,26.775 33.3393482,9.59638892 65.9980445,0.439166748 Z" id="purple-shirt-2" stroke="#4B6575" stroke-width="4.725" fill="#D27FC0"></path>
                <path d="M66.6417211,2.75739063 C75.7689785,8.63973688 84.7636824,9.11329483 93.6258328,4.1780645 C103.841291,5.67300957 127.235766,15.0484006 143.249029,40.5123764 C119.763052,13.0937944 104.672476,9.57567697 97.3655356,8.93829844 C91.6151821,8.43669973 86.2304944,11.6381159 80.3943124,11.4667524 C74.5683733,11.2956897 68.2919195,7.75442997 61.4388431,4.32215027 C62.5685631,3.95831227 64.3028557,3.43672572 66.6417211,2.75739063 Z" id="purple-shirt-copy" fill-opacity="0.8" fill="#E0A9D4"></path>
                <path d="M118.857294,58.3671937 C117.287155,59.3193664 118.29292,62.0975217 119.900622,74.3405126 C120.226626,76.8231007 120.222923,81.4927412 119.889513,88.3494342 L132.490566,76.2748148 C130.400564,71.0960317 128.246217,66.7110439 126.027528,63.1198514 C123.466559,58.9746426 120.608127,57.3054437 118.857294,58.3671937 Z" id="Path-14" fill="#B56BA5"></path>
                <path d="M119.598557,61.9721211 C122.596201,72.1109871 126.323642,78.9932075 130.78088,82.618782" id="Line-2" stroke="#4B6575" stroke-width="4.725" fill="#D27FC0" stroke-linecap="round" transform="translate(125.189719, 72.295452) rotate(4.000000) translate(-125.189719, -72.295452) "></path>
                <path d="M31.9932541,117.6525 C31.8075962,117.6525 31.6220338,117.660917 31.4371383,117.677726 C28.0586612,117.98486 25.5688458,120.972639 25.8759801,124.351116 L27.1646165,138.526116 C27.4522414,141.68999 30.1049698,144.1125 33.2818905,144.1125 L124.303618,144.1125 C127.549125,144.1125 130.234577,141.587644 130.434458,138.348298 L131.309114,124.173298 C131.316886,124.047349 131.320774,123.921189 131.320774,123.795 C131.320774,120.402591 128.570683,117.6525 125.178274,117.6525 L31.9932541,117.6525 Z" id="Rectangle" stroke="#4B6575" stroke-width="4.725" fill="#B06AA1"></path>
                <path d="M172.147318,88.7873605 C172.177159,90.7107588 172.056684,92.1345781 171.785893,93.0588184 C171.324267,94.6343986 170.712325,95.7103999 169.950067,96.2868221 L169.950067,102.670149 C171.950067,101.958458 173.156254,100.076763 173.568629,97.025064 C173.806587,95.2641007 173.332816,92.5181995 172.147318,88.7873605 Z" id="elbow-shadow" fill="#B56BA5"></path>
            </g>
            <path d="M881.309339,364.936915 L883.467739,364.936915 C884.528568,364.936915 885.388539,365.796886 885.388539,366.857715 L885.388539,460.579328 C885.388539,461.640157 884.528568,462.500128 883.467739,462.500128 L881.309339,462.500128 C880.24851,462.500128 879.388539,461.640157 879.388539,460.579328 L879.388539,366.857715 C879.388539,365.796886 880.24851,364.936915 881.309339,364.936915 Z" id="Rectangle-Copy-24" fill-opacity="0.4" fill="#8B7686" transform="translate(882.388539, 413.718522) rotate(-7.000000) translate(-882.388539, -413.718522) "></path>
            <g id="boba" transform="translate(863.391497, 363.520302)">
                <path d="M17.9709532,2.99007004 L17.9709532,96.5532832 L26.9709532,96.5532832 L26.9709532,2.99007004 L17.9709532,2.99007004 Z" id="Rectangle" stroke="#4B6575" stroke-width="4" fill-opacity="0.4" fill="#D27FC0" transform="translate(22.470953, 49.771677) rotate(-7.000000) translate(-22.470953, -49.771677) "></path>
                <path d="M4.82432149,44.222947 L49.851322,44.222947 L44.7303747,104.154061 C44.5180775,106.638603 42.4394051,108.547233 39.9458095,108.547233 L16.4761687,108.547233 C14.0355455,108.547233 11.9831323,106.716508 11.7053687,104.291742 L4.82432149,44.222947 Z" id="Rectangle" fill="#E7D1B4"></path>
                <polygon id="Rectangle-Copy-9" fill="#D0BCA1" points="4.82432149 44.222947 49.851322 44.222947 48.6085026 49.1639071 4.82432149 49.1639071"></polygon>
                <path d="M10.6085026,46.0963986 C12.805753,64.4796978 12.805753,91.4796978 20.6085026,100.67345 C28.4112523,109.867202 47.2099246,104.450526 45.305753,106.479698 C43.6933359,108.197963 33.8320534,108.604636 15.7219055,107.699718 L15.7219054,107.699721 C13.3551472,107.58146 11.4285135,105.754375 11.1849743,103.397211 C8.91242464,81.4016901 7.4526842,65.7625189 6.80575299,56.4796978 C5.77635588,41.7088703 8.60850262,46.0963986 10.6085026,46.0963986 Z" id="Rectangle" fill="#CCB79B"></path>
                <path d="M15.6136122,49.1639071 C16.6136122,68.4796978 18.6283875,99.4796978 22.6136122,103.902149 C26.598837,108.3246 50.4044673,104.450526 48.5002956,106.479698 C46.8905409,108.195125 37.0591391,108.603289 19.0060903,107.70419 L19.0060901,107.704193 C16.6014357,107.584433 14.6571794,105.702469 14.4592073,103.302987 C11.8676785,71.8928694 10.2524801,53.9517729 9.61361222,49.4796978 C12.2802789,49.2691707 14.2802789,49.1639071 15.6136122,49.1639071 Z" id="Rectangle-Copy-22" fill-opacity="0.4" fill="#FFFFFF" transform="translate(29.111057, 78.665939) scale(-1, 1) translate(-29.111057, -78.665939) "></path>
                <circle id="Oval" fill="#4A4A4A" cx="22.1114735" cy="95.2803494" r="3.61824112"></circle>
                <circle id="Oval-Copy" fill="#4A4A4A" cx="29.3479557" cy="98.8985905" r="3.61824112"></circle>
                <circle id="Oval-Copy-2" fill="#4A4A4A" cx="29.3479557" cy="89.4603834" r="3.61824112"></circle>
                <circle id="Oval-Copy-6" fill="#4A4A4A" cx="14.3443755" cy="98.8985905" r="3.61824112"></circle>
                <circle id="Oval-Copy-7" fill="#4A4A4A" cx="44.511492" cy="95.6968657" r="3.61824112"></circle>
                <circle id="Oval-Copy-3" fill="#4A4A4A" cx="36.4312159" cy="93.2706483" r="3.61824112"></circle>
                <circle id="Oval-Copy-8" fill="#4A4A4A" cx="40.049457" cy="85.8421423" r="3.61824112"></circle>
                <circle id="Oval-Copy-9" fill="#4A4A4A" cx="21.5808577" cy="85.5135569" r="3.61824112"></circle>
                <circle id="Oval-Copy-10" fill="#4A4A4A" cx="13.5610706" cy="89.6524072" r="3.61824112"></circle>
                <circle id="Oval-Copy-4" fill="#4A4A4A" cx="38.039323" cy="101.807914" r="3.61824112"></circle>
                <circle id="Oval-Copy-5" fill="#4A4A4A" cx="23.0357428" cy="104.291691" r="3.61824112"></circle>
                <path d="M4.82432149,43.6167359 L49.851322,43.6167359 L45.6728926,104.966673 C45.5356091,106.982343 43.8605117,108.547233 41.8401718,108.547233 L14.3560685,108.547233 C12.3720517,108.547233 10.7144058,107.036407 10.5309304,105.060892 L4.82432149,43.6167359 Z" id="Rectangle-Copy-2" stroke="#4B6575" stroke-width="4.5"></path>
                <path d="M4.0394551,36.7033642 L51.0379548,36.7033642 C52.4810339,36.7033642 53.7015277,37.7709573 53.8935369,39.2012054 L54.5295557,43.9388143 C54.6001301,44.4645125 54.2311794,44.9478869 53.7054813,45.0184613 C53.6631233,45.0241478 53.620433,45.0270006 53.577695,45.0270006 L1.17393071,45.0270006 C0.643516435,45.0270006 0.213530709,44.5970148 0.213530709,44.0666006 C0.213530709,44.0027041 0.219907323,43.9389671 0.232565763,43.8763371 L1.21536026,39.0137737 C1.48700922,37.6697386 2.66824267,36.7033642 4.0394551,36.7033642 Z" id="Rectangle" stroke="#4B6575" stroke-width="4" fill="#EAEAEA"></path>
                <polygon id="Path-15" fill="#B7B7B7" points="1.60850262 38.4796978 0.608502622 43.6167359 9.60850262 43.6167359 10.6085026 38.4796978"></polygon>
                <polygon id="Path-15-Copy" fill-opacity="0.7" fill="#FFFFFF" transform="translate(49.608503, 41.048217) scale(-1, 1) translate(-49.608503, -41.048217) " points="45.6085026 38.4796978 44.6085026 43.6167359 53.6085026 43.6167359 54.6085026 38.4796978"></polygon>
                <path d="M4.0394551,36.7033642 L51.0379548,36.7033642 C52.4810339,36.7033642 53.7015277,37.7709573 53.8935369,39.2012054 L54.5295557,43.9388143 C54.6001301,44.4645125 54.2311794,44.9478869 53.7054813,45.0184613 C53.6631233,45.0241478 53.620433,45.0270006 53.577695,45.0270006 L1.17393071,45.0270006 C0.643516435,45.0270006 0.213530709,44.5970148 0.213530709,44.0666006 C0.213530709,44.0027041 0.219907323,43.9389671 0.232565763,43.8763371 L1.21536026,39.0137737 C1.48700922,37.6697386 2.66824267,36.7033642 4.0394551,36.7033642 Z" id="Rectangle-Copy-23" stroke="#4B6575" stroke-width="4"></path>
            </g>
            <g id="mouse" transform="translate(501.385171, 444.184748)">
                <path d="M22.329963,29.4101951 C47.993195,28.9740658 44.9426085,19.0355008 42.4813929,12.5265646 C40.0201774,6.01762837 33.4592904,0.00752536368 22.329963,0.00752536368 C11.2006355,0.00752536368 4.80402024,6.01762837 2.17853297,12.5265646 C-0.4469543,19.0355008 -3.33326906,29.8463244 22.329963,29.4101951 Z" id="Oval" stroke="#4B6575" stroke-width="5" fill="#FFFFFF"></path>
                <path d="M21.9234486,27.1659163 C27.2236451,27.1659163 36.8120789,27.1659163 40.6148285,22.2377035 C26.8120789,25.8152523 12.4401269,23.7281606 9.63737723,22.2377035 C6.83462759,20.7472464 4.61482854,19.9905843 4.61482854,12.8152523 C3.45295049,15.6957043 1.74264673,20.3812533 4.61482854,23.2377035 C7.51676345,26.1237438 15.0424965,27.1659163 21.9234486,27.1659163 Z" id="Oval-Copy-12" fill="#D7D7D7"></path>
                <path d="M22.2935855,0.00752536368 L22.2935855,28.3209286" id="Line" stroke="#4B6575" stroke-width="2" stroke-linecap="square"></path>
                <rect id="Rectangle" stroke="#4B6575" stroke-width="2" fill="#FFFFFF" x="20.0257861" y="8.6248654" width="4.53559891" height="7.80339837" rx="2.26779946"></rect>
            </g>
            <g id="laptop" transform="translate(571.000000, 347.000000)">
                <rect id="Rectangle" stroke="#4B6575" stroke-width="5" fill="#E7E7E7" x="3.54509738" y="118.184209" width="169.149512" height="13.6457192" rx="6.82285962"></rect>
                <rect id="Rectangle" stroke="#4B6575" stroke-width="5" fill="#F6F6F6" x="2.72530492" y="2.92245124" width="171" height="115" rx="10"></rect>
                <path d="M10.2253049,5.42241971 L166.225327,5.42242172 C168.98675,5.42242172 171.225325,7.66099707 171.225325,10.4224197 C171.225325,10.4224201 171.225325,10.4224205 171.225325,10.4224209 C171.225312,67.1130105 171.225305,99.6388702 171.225305,108 C171.225305,111.800652 170.768016,112.816437 170,114 C169.205999,115.223606 167.039333,115.724315 163.5,115.502125 C166.08511,114.669821 167.369815,113.230695 167.354114,111.184748 C167.078091,75.2174114 167.670373,18 167.670373,15.2890031 C167.670373,11.2107399 167.078091,9.14411482 164.19725,9.14411482 C160.384052,9.14411482 22.1824751,9.14411482 13.1972504,9.14411482 C9.33929653,9.14411482 6.68198138,12.0960765 5.22530492,18 L5.22530492,10.4224197 C5.22530492,7.66099596 7.46388117,5.42241971 10.2253049,5.42241971 Z" id="Rectangle" fill="#FFFFFF"></path>
                <path d="M10.2253144,5.42241971 L166.225328,5.42242148 C168.986751,5.42242148 171.225326,7.66099694 171.225326,10.4224197 C171.225326,10.4224199 171.225326,10.4224202 171.225326,10.4224204 C171.225318,67.1130103 171.225314,99.6388702 171.225314,108 C171.225314,111.800652 170.768026,112.816437 170.000009,114 C169.206009,115.223606 167.039342,115.724315 163.500009,115.502125 C166.684631,114.673305 168.269092,113.235921 168.253391,111.189974 C167.977368,75.2226372 168.253391,18.0346607 168.253391,15.3236638 C168.253391,11.2454006 167.078101,9.14411482 164.19726,9.14411482 C160.384062,9.14411482 22.1824846,9.14411482 13.1972599,9.14411482 C9.33930601,9.14411482 6.68199087,12.0960765 5.22531441,18 L5.22531441,10.4224197 C5.22531441,7.66099596 7.46389066,5.42241971 10.2253144,5.42241971 Z" id="Rectangle-Copy-25" fill="#E2E2E2" transform="translate(88.225321, 60.487882) scale(-1, -1) translate(-88.225321, -60.487882) "></path>
                <g id="apple" transform="translate(74.000000, 39.000000)" stroke="#4B6575" stroke-linejoin="round">
                    <path d="M25.9664497,16.9096599 C24.754009,18.0449708 24,19.6668829 24,21.4676195 C24,23.5681746 25.0259928,25.4254001 26.6088165,26.5507705 C25.4339722,30.698584 21.8423081,35.3515543 19,37 C16.6709083,38.350797 16.8785335,36 14,36 C11.4516244,36 11.0335619,38.227234 9,37 C5.08392061,34.6366857 1.84965012,30.9435608 0.95772306,25.1842093 C6.77236045e-15,19 2.49266896,13.8695818 8,13 C10,12.6842093 12.4064977,14 14,14 C15.4753685,14 18,11.9562104 21,13 C23.6271625,13.9140683 25.124557,15.1575309 25.9664497,16.9096599 Z" id="Combined-Shape" stroke-width="4" fill="#FFFFFF"></path>
                    <path d="M15.2660211,10.0816406 C14.372636,8.30843855 14.4557444,6.55846475 15.5153462,4.83171921 C16.574948,3.10497367 18.3224151,1.87180999 20.7577473,1.13222819 C21.1091469,2.90604683 20.9797508,4.53874052 20.369559,6.03030926 C19.7593672,7.52187799 18.0581879,8.87232178 15.2660211,10.0816406 Z" id="Path" stroke-width="3" stroke-linecap="round" transform="translate(17.801688, 5.606934) rotate(23.000000) translate(-17.801688, -5.606934) "></path>
                </g>
            </g>
            <g id="pencil" transform="translate(823.940593, 427.000000) rotate(11.000000) translate(-823.940593, -427.000000) translate(812.440593, 397.000000)">
                <rect id="pen/pencil" stroke="#4B6575" stroke-width="4" fill="#FBEC90" transform="translate(10.181379, 33.441003) rotate(14.000000) translate(-10.181379, -33.441003) " x="4.18137919" y="5.44100275" width="12" height="56" rx="6"></rect>
                <rect id="pen/pencil-copy-2" fill-opacity="0.7" fill="#DECE67" transform="translate(8.240788, 32.957159) rotate(14.000000) translate(-8.240788, -32.957159) " x="6.24078774" y="6.95715896" width="4" height="52" rx="2"></rect>
                <path d="M15.3178214,-0.356302803 L19.3178214,-0.356302803 C21.5269604,-0.356302803 23.3178214,1.4345582 23.3178214,3.6436972 L23.3178214,10.2670364 L11.3178214,10.259212 L11.3178214,3.6436972 C11.3178214,1.4345582 13.1086824,-0.356302803 15.3178214,-0.356302803 Z" id="pen/pencil-copy" stroke="#4B6575" stroke-width="4" fill="#FFD3C9" transform="translate(17.317821, 4.954715) rotate(14.000000) translate(-17.317821, -4.954715) "></path>
            </g>
            <g id="desk" transform="translate(382.045097, 472.684209)">
                <rect id="Rectangle" stroke="#4B6575" stroke-width="5" fill="#C5B9AF" x="2.5" y="2.5" width="613" height="21" rx="10.5"></rect>
                <path d="M55.5,23.5 L55.5,262.618666 C55.5,266.760802 58.8578644,270.118666 63,270.118666 L71,270.118666 C75.1421356,270.118666 78.5,266.760802 78.5,262.618666 L78.5,23.5 L55.5,23.5 Z" id="Rectangle" stroke="#4B6575" stroke-width="5" fill="#C5B9AF"></path>
                <path d="M58,26 L62.152153,26 C60.6873194,176.210527 60.6215693,253.649124 61.9549026,258.315791 C63.9688154,265.364485 71.8776976,265.364485 75.9549026,260.315791 C75.9358116,262.270839 76.1698215,264.966678 74.9549026,266.315791 C73.2999096,268.153586 69.7841398,268.315791 66.9322427,268.315791 C62.152153,268.315791 59.152153,267.315791 58.152153,264.315791 C58.003696,263.87042 57.8644853,264.054172 57.8644853,256.315791 C57.8644853,247.639521 57.9096569,170.867591 58,26 Z" id="Rectangle-Copy-11" fill="#9D9187"></path>
                <path d="M540.70128,23.5 L540.70128,262.618666 C540.70128,266.760802 544.059144,270.118666 548.20128,270.118666 L556.20128,270.118666 C560.343415,270.118666 563.70128,266.760802 563.70128,262.618666 L563.70128,23.5 L540.70128,23.5 Z" id="Rectangle-Copy" stroke="#4B6575" stroke-width="5" fill="#C5B9AF"></path>
                <path d="M543.375343,26 L547.527496,26 C546.062662,176.210527 545.996912,253.649124 547.330245,258.315791 C549.344158,265.364485 557.25304,265.364485 561.330245,260.315791 C561.311154,262.270839 561.545164,264.966678 560.330245,266.315791 C558.675252,268.153586 555.159482,268.315791 552.307585,268.315791 C547.527496,268.315791 544.527496,267.315791 543.527496,264.315791 C543.379039,263.87042 543.239828,264.054172 543.239828,256.315791 C543.239828,247.639521 543.285,170.867591 543.375343,26 Z" id="Rectangle-Copy-12" fill="#9D9187"></path>
                <path d="M6.95490262,7.64571924 C5.95490262,8.64571924 4.95490262,10.3157907 4.95490262,13.3157907 C4.95490262,16.3157907 7.95490262,20.3157907 11.9549026,21 C15.9549026,21.6842093 592.349403,20.6842093 600.152153,21 C607.954903,21.3157907 611.954903,20.3157907 612.954903,13.3157907 C610.954903,16.4976454 609.954903,17.3157907 605.954903,17.3157907 C518.246721,17.3157907 320.580055,16.9824573 12.9549026,16.3157907 C6.95490262,15.1424844 4.95490262,12.2524606 6.95490262,7.64571924 Z" id="Path-3" fill="#9D9187"></path>
                <rect id="Rectangle" fill="#DED1C6" x="12.9549026" y="5.31579066" width="593" height="2" rx="1"></rect>
            </g>
            <g id="legs" transform="translate(697.000000, 561.000000)">
                <path d="M28.0446999,4.63182817 C26.7426657,4.44553447 25.4226586,4.42012346 24.1144191,4.55616768 C15.3046919,5.47229392 8.90566386,13.356656 9.8217901,22.1663833 L22.8121043,147.084895 C23.2652062,151.44205 27.0568142,154.67759 31.4310046,154.439769 C35.9845996,154.192194 39.6377729,150.586125 39.9444203,146.036126 L48.1367762,24.4789057 C48.7757249,14.99826 41.997554,6.62818804 32.5911954,5.28233603 L28.0446999,4.63182817 Z" id="Rectangle" stroke="#4B6575" stroke-width="5" fill="#FAEBDA" transform="translate(28.956413, 79.461143) rotate(5.000000) translate(-28.956413, -79.461143) "></path>
                <path d="M33.4476962,8.93683386 L33.4476962,8.93683386 C41.1449095,7.41761008 48.616308,12.4258601 50.1355317,20.1230734 C50.2448802,20.6770919 50.3210967,21.2371377 50.3637756,21.8002292 C50.3868463,22.104247 50.4102462,22.3920286 50.4340032,22.663572 C47.5788543,17.9572293 44.8484063,16.1884729 33.8701568,18.1527651 C26.5513239,19.4622933 22.9342106,24.4632423 23.0188168,33.1556121 L21.620511,28.1373847 C19.3424922,19.9620511 24.1232105,11.4879347 32.2985441,9.20991594 C32.6779535,9.10419525 33.0612874,9.01310062 33.4476962,8.93683386 Z" id="Rectangle-Copy-20" fill="#E2D2C1" transform="translate(35.743343, 20.910436) rotate(5.000000) translate(-35.743343, -20.910436) "></path>
                <path d="M91.8469743,5.95036142 C90.906324,5.87768873 89.9609152,5.89392365 89.0233147,5.99885037 C80.7904366,6.92019045 74.8632639,14.3411506 75.784604,22.5740287 L89.785661,147.68418 C90.315105,152.415167 94.5223891,155.859685 99.264794,155.444778 C104.308096,155.003546 108.256537,150.915858 108.522779,145.860298 L115.023698,22.4172375 C115.451846,14.2873306 109.316866,7.30004899 101.199882,6.67294762 L91.8469743,5.95036142 Z" id="Rectangle-Copy-4" stroke="#4B6575" stroke-width="5" fill="#FAEBDA" transform="translate(95.367427, 80.692289) scale(-1, 1) rotate(5.000000) translate(-95.367427, -80.692289) "></path>
                <path d="M78.4161943,11.4596243 L78.4161943,11.4596243 C83.5673981,9.78563444 89.1003107,12.6044732 90.7743006,17.755677 C91.1360349,18.8688061 91.2955934,20.0376994 91.2454271,21.2070545 L85.6921933,150.650694 C85.6699204,151.169867 85.2309918,151.572684 84.7118189,151.550411 C84.5480312,151.543384 84.3889217,151.493685 84.2502537,151.406239 C85.2580613,76.6873616 86.1456249,35.7758748 85.5405475,27.8063172 C84.9354701,19.8367596 82.5606857,14.387862 78.4161943,11.4596243 Z" id="Rectangle-Copy-4" fill="#E2D2C1" transform="translate(84.795058, 81.283770) scale(-1, 1) rotate(6.000000) translate(-84.795058, -81.283770) "></path>
                <path d="M14.9776536,8.57682862 L14.9776536,8.57682862 C20.1288573,6.90283873 25.66177,9.7216775 27.3357599,14.8728812 C27.6974941,15.9860103 27.8570526,17.1549037 27.8068864,18.3242588 L22.2536526,147.767898 C22.2313796,148.287071 21.792451,148.689888 21.2732781,148.667615 C21.1094905,148.660588 20.9503809,148.61089 20.8117129,148.523443 C21.8195205,73.8045658 22.7070842,32.893079 22.1020067,24.9235214 C21.4969293,16.9539639 19.1221449,11.5050663 14.9776536,8.57682862 Z" id="Rectangle-Copy-4" fill="#E2D2C1" transform="translate(21.356517, 78.400974) scale(-1, 1) rotate(-2.000000) translate(-21.356517, -78.400974) "></path>
                <path d="M90.4032518,7.89539587 L90.4032518,7.89539587 C97.6623862,5.94272559 105.130029,10.2444647 107.0827,17.5035991 C107.224045,18.0290559 107.333753,18.5625158 107.411234,19.1011066 C107.612444,20.4997001 107.846374,21.6969506 108.113035,22.6928568 C105.257886,17.9865142 101.989741,16.2631968 91.0114915,18.227489 C83.6926585,19.5370171 80.0755452,24.5379661 80.1601514,33.2303359 L78.7812481,28.28174 C76.3323598,19.4931913 81.47167,10.3834487 90.2602187,7.93456036 C90.3078375,7.92129159 90.3555157,7.90823663 90.4032518,7.89539587 Z" id="Rectangle-Copy-21" fill="#E2D2C1" transform="translate(93.141931, 20.327559) rotate(13.000000) translate(-93.141931, -20.327559) "></path>
            </g>
            <g id="skirt" transform="translate(678.000000, 507.000000)">
                <path d="M30.8202176,6.58298923 C29.1478372,6.87196545 27.6229103,7.71961423 26.4946242,8.9874203 C16.4324885,20.2938349 9.74514956,31.7278411 6.4015677,43.2881778 C4.02736888,51.496901 2.72523435,60.1534416 2.4969968,69.262792 C2.47108831,70.2968443 2.6593558,71.3250775 3.04996646,72.2828659 C4.61415731,76.1183064 8.991423,77.9595176 12.826863,76.3953254 C30.6181083,69.1395999 42.8307953,65.0406855 49.6495961,64.0754234 C54.7783414,63.3494038 58.884867,63.8776587 67.4209659,65.7758912 C73.8250128,67.2000042 76.3984158,67.6373848 79.5817957,67.6373848 C82.9964225,67.6373848 85.8779378,67.22806 94.431154,65.7211814 C96.2679164,65.3975864 97.4522649,65.1936003 98.681148,64.9926398 C106.352099,63.7382011 111.65279,63.3664703 116.373015,64.0787298 C122.375992,64.9845503 132.10319,68.6166709 145.723747,74.9895382 C146.881116,75.5310549 148.157647,75.7678943 149.432241,75.6775882 C153.564018,75.3848479 156.676173,71.7980675 156.383434,67.6662901 C155.745696,58.6651758 154.153398,49.9470884 151.606626,41.5085908 C147.836622,29.0170232 140.48913,18.0045798 129.518383,8.43988676 C128.488012,7.54157231 127.23172,6.94194334 125.885291,6.70580768 C109.921629,3.90615551 93.9603917,2.50654207 78,2.50654207 C62.274719,2.50654207 46.5486294,3.86522404 30.8202176,6.58298923 Z" stroke="#4B6575" stroke-width="5" fill="#2A81A5"></path>
                <path d="M32.6520737,8.95316208 C47.9238512,6.31772069 63.0398266,5 78,5 C93.0253281,5 108.207818,6.15384876 123.547471,8.46154629 L123.547471,8.46154836 C125.777276,8.79700033 127.828259,9.87622057 129.367506,11.524031 C133.362303,15.8005815 135.906468,18.6259045 137,20 C130.724612,15.886943 122.990828,13.2903879 112.279787,11.7125827 C103.439921,10.4104137 93.7494529,12.6941778 80,12.5 C68.7447139,12.3410463 58.2881251,9.89216799 50.4616475,10.860197 C37.1239731,12.5098862 28.0056009,15.6839122 20.5172704,20 C21.5406392,18.6475551 23.5871623,16.1215522 26.6568396,12.4219911 L26.6568409,12.4219921 C28.1782117,10.5884429 30.3042418,9.358326 32.6520737,8.95316208 Z" fill="#267494"></path>
                <path d="M30.3134956,9.60796473 C21.1972504,16 4.7399615,49.1758745 15.9026083,59 C26.1288438,68 38.7921613,54.4897383 56,57 C63.6746161,58.1195651 74.6945554,61 81.0067683,61 C85.5657059,61 103.646807,58.0263925 119.985225,61 C135.375404,63.8010273 144.875154,72.544704 149,73 C143.10287,73 130.076613,63.7905664 116,62 C101.43228,60.146964 85.8253336,65.7106524 81.0067683,65.7106524 C72.1960903,65.7106524 66.2893571,63.8273966 57.1972504,62 C43.7946345,59.3062465 12.3988761,76.9965068 8.40586257,75 C2.40586257,72 3,55 9,41 C15,27 24,13 30.3134956,9.60796473 Z" fill="#2B7696"></path>
            </g>
            <g id="shoe" transform="translate(701.000000, 708.000000)">
                <path d="M19.2329121,3.10642578 C9.53165478,3.26404874 4.26348042,10.9669969 3.44068692,27.4139963 C3.4353995,27.5196877 3.43316354,27.6255096 3.43398182,27.73133 C3.45746991,30.7688057 5.93887137,33.2121255 8.97634701,33.1886374 L29.8114511,33.0275237 C29.9066931,33.0267872 30.0019,33.0235768 30.0969752,33.0178958 C33.1291358,32.8367171 35.4403117,30.2317916 35.2591299,27.1996308 C34.2648563,10.5597248 28.9224506,2.94899322 19.2329121,3.10642578 Z" id="Rectangle" stroke="#4B6575" stroke-width="5" fill="#E9D2E4" transform="translate(19.354403, 18.146467) rotate(1.000000) translate(-19.354403, -18.146467) "></path>
                <path d="M18.8976681,5.56324618 C29.8967769,5.78077303 31.4918374,16.2736182 31.4360554,19.0090204 C29.6251177,13.5600759 25.658678,9.80178403 21.9098193,8.67026145 C17.887852,7.45630621 13.830915,7.38753035 8.60822685,13.2538432 C10.7973403,8.29661876 15.0290552,5.48673752 18.8976681,5.56324618 Z" id="Rectangle-Copy-14" fill="#FCEFF9" transform="translate(20.022830, 12.285372) rotate(-1.000000) translate(-20.022830, -12.285372) "></path>
                <path d="M7,17 C7,21 7.14427226,24 13.1442723,25 C17.9835227,25.8065417 24,26.2290118 27,26 C28.5093642,25.8847793 32,25 33,24 C33.6666667,24.6666667 33.6666667,26 33,28 C17.1315002,28 7.86391703,28 5.19725037,28 C5.19725037,24.5562266 6,20 7,17 Z" id="Rectangle" fill="#B8A2B3"></path>
                <path d="M19.2329121,3.10642578 C9.53165478,3.26404874 4.26348042,10.9669969 3.44068692,27.4139963 C3.4353995,27.5196877 3.43316354,27.6255096 3.43398182,27.73133 C3.45746991,30.7688057 5.93887137,33.2121255 8.97634701,33.1886374 L29.8114511,33.0275237 C29.9066931,33.0267872 30.0019,33.0235768 30.0969752,33.0178958 C33.1291358,32.8367171 35.4403117,30.2317916 35.2591299,27.1996308 C34.2648563,10.5597248 28.9224506,2.94899322 19.2329121,3.10642578 Z" id="Rectangle-Copy-15" stroke="#4B6575" stroke-width="5" transform="translate(19.354403, 18.146467) rotate(1.000000) translate(-19.354403, -18.146467) "></path>
                <path d="M2.6750142,29.7648161 L2.6750142,35.6545137 C2.6750142,36.7590832 3.5704447,37.6545137 4.6750142,37.6545137 L33.5694308,37.6545137 C34.6740003,37.6545137 35.5694308,36.7590832 35.5694308,35.6545137 L35.5694308,29.7648161 L2.6750142,29.7648161 Z" id="Rectangle" stroke="#4B6575" stroke-width="4" fill="#FFFFFF" transform="translate(19.122223, 33.709665) rotate(1.000000) translate(-19.122223, -33.709665) "></path>
            </g>
            <g id="shoe-copy" transform="translate(795.854792, 726.990407) rotate(-3.000000) translate(-795.854792, -726.990407) translate(776.354792, 706.990407)">
                <path d="M19.5099212,3.63843588 C9.67896222,3.89847491 4.32281834,11.7643039 3.4618236,28.4055312 C3.45608172,28.5165096 3.45370463,28.6276365 3.45469559,28.7387589 C3.48178261,31.7762026 5.96607564,34.2165789 9.00351971,34.1894919 L29.9276939,34.0028992 C29.9925245,34.0023211 30.0573399,34.0005967 30.1221096,33.9977268 C33.1566992,33.8632668 35.5077182,31.2942449 35.3732573,28.2596552 C34.6147589,11.1413111 29.3190102,3.37897532 19.5099212,3.63843588 Z" id="Rectangle" stroke="#4B6575" stroke-width="5" fill="#E9D2E4" transform="translate(19.418736, 18.910686) rotate(1.000000) translate(-19.418736, -18.910686) "></path>
                <path d="M19.2610921,6.00264324 C30.2602009,6.22017009 31.8552614,16.7130153 31.7994794,19.4484175 C29.9885417,13.999473 26.0221021,10.2411811 22.2732433,9.10965851 C18.251276,7.89570327 14.194339,7.82692741 8.97165087,13.6932403 C11.1607643,8.73601582 15.3924793,5.92613457 19.2610921,6.00264324 Z" id="Rectangle-Copy-13" fill="#FCEFF9" transform="translate(20.386254, 12.724769) rotate(1.000000) translate(-20.386254, -12.724769) "></path>
                <path d="M6.7694655,17.2452046 C6.7694655,21.2452046 6.91373776,24.2452046 12.9137378,25.2452046 C17.7529882,26.0517463 23.7694655,26.4742164 26.7694655,26.2452046 C28.2788297,26.1299839 31.7694655,25.2452046 32.7694655,24.2452046 C33.4361322,24.9118712 33.4361322,26.2452046 32.7694655,28.2452046 C16.9009657,28.2452046 7.63338254,28.2452046 4.96671587,28.2452046 C4.96671587,24.8014312 5.7694655,20.2452046 6.7694655,17.2452046 Z" id="Rectangle-Copy-16" fill="#B8A2B3"></path>
                <path d="M19.5099212,3.63843588 C9.67896222,3.89847491 4.32281834,11.7643039 3.4618236,28.4055312 C3.45608172,28.5165096 3.45370463,28.6276365 3.45469559,28.7387589 C3.48178261,31.7762026 5.96607564,34.2165789 9.00351971,34.1894919 L29.9276939,34.0028992 C29.9925245,34.0023211 30.0573399,34.0005967 30.1221096,33.9977268 C33.1566992,33.8632668 35.5077182,31.2942449 35.3732573,28.2596552 C34.6147589,11.1413111 29.3190102,3.37897532 19.5099212,3.63843588 Z" id="Rectangle-Copy-17" stroke="#4B6575" stroke-width="5" transform="translate(19.418736, 18.910686) rotate(1.000000) translate(-19.418736, -18.910686) "></path>
                <path d="M2.79412483,30.2005732 L2.79412483,35.8800949 C2.79412483,36.9846644 3.68955533,37.8800949 4.79412483,37.8800949 L33.6658966,37.8800949 C34.7704661,37.8800949 35.6658966,36.9846644 35.6658966,35.8800949 L35.6658966,30.2005732 L2.79412483,30.2005732 Z" id="Rectangle-Copy-5" stroke="#4B6575" stroke-width="4" fill="#FFFFFF"></path>
            </g>
            <g id="post-it-notes" transform="translate(414.000000, 429.000000)">
                <rect id="Rectangle" stroke="#4B6575" stroke-width="5" fill="#FFB6EE" x="2.5" y="31.6847477" width="49" height="13.8152523"></rect>
                <rect id="Rectangle-Copy-6" stroke="#4B6575" stroke-width="5" fill="#FFF9B4" x="7.39196219" y="17.8694955" width="49" height="13.8152523"></rect>
                <rect id="Rectangle-Copy-7" stroke="#4B6575" stroke-width="5" fill="#D6FFAC" x="2.5" y="3" width="49" height="15"></rect>
                <rect id="Rectangle" fill="#E4A5D5" x="5" y="34" width="44" height="3"></rect>
                <rect id="Rectangle-Copy-10" fill="#EEE8A6" x="9.89196219" y="20.5" width="44" height="3"></rect>
                <rect id="Rectangle-Copy-19" fill="#C6EBA0" x="4.89196219" y="12.5" width="44" height="3"></rect>
            </g>
            <g id="hand" transform="translate(798.000000, 443.000000)">
                <path d="M20.2148979,22.6745948 C43.8614122,22.3469928 41.0505528,14.8815619 38.7827493,9.99232345 C36.5149457,5.10308504 30.4696391,0.588549095 20.2148979,0.588549095 C9.96015679,0.588549095 4.06621273,5.10308504 1.64704657,9.99232345 C-0.77211958,14.8815619 -3.43161638,23.0021967 20.2148979,22.6745948 Z" id="hand-copy" stroke="#4B6575" stroke-width="5" fill="#FAEBDA"></path>
                <path d="M20.3121136,20.2631514 C23.7554866,20.141326 34,19 35,18 C27,18 22.1345729,17.6328453 12.5007673,17 C2.86696174,16.3671547 3.90481412,13 3.90481412,11 C1.8063051,14.7429552 -0.514768363,21 20.3121136,20.2631514 Z" id="hand-copy" fill="#D2C4B4"></path>
            </g>
            <g id="paper/notebook" transform="translate(762.000000, 461.000000)">
                <rect id="Rectangle" stroke="#4B6575" stroke-width="4" fill="#FFFFFF" x="2.12884377" y="2.63637922" width="81" height="11" rx="4"></rect>
                <rect id="Rectangle" fill="#DFDFDF" x="4.13307106" y="8.13637922" width="76.9957727" height="3.54783012"></rect>
            </g>
            <path d="M457.006549,500.684209 L457.006549,733" id="Line-110" stroke="#DED1C6" stroke-width="2" stroke-linecap="round"></path>
            <path d="M942.006549,500.684209 L942.006549,733" id="Line-110-Copy" stroke="#DED1C6" stroke-width="2" stroke-linecap="round"></path>
        </g>
    </g>
</svg>