<?xml version="1.0" encoding="UTF-8"?>
<svg width="17px" height="16px" viewBox="0 0 17 16" version="1.1" xmlns="http://www.w3.org/2000/svg" xmlns:xlink="http://www.w3.org/1999/xlink">
    <!-- Generator: Sketch 52.2 (67145) - http://www.bohemiancoding.com/sketch -->
    <title>Icon Copy</title>
    <desc>Created with Sketch.</desc>
    <defs>
        <path d="M35.4137522,24.6016 L28.2135572,18.2016 C27.910349,17.9328 27.4543366,17.9328 27.1511284,18.2016 L26.0822995,19.152 L26.0822995,18.8 C26.0822995,18.3584 25.7246898,18 25.2822778,18 L22.0821911,18 C21.6397791,18 21.2821695,18.3584 21.2821695,18.8 L21.2821695,23.4184 L19.9509334,24.6016 C19.6205245,24.896 19.5909237,25.4008 19.8845316,25.732 C20.1773395,26.0616 20.6829532,26.0896 21.0133622,25.7984 L21.2821695,25.5592 L21.2821695,33.2 C21.2821695,33.6416 21.6397791,34 22.0821911,34 L33.2824945,34 C33.7249064,34 34.0825161,33.6416 34.0825161,33.2 L34.0825161,25.5592 L34.3513234,25.7984 C34.5033275,25.9336 34.6937327,26 34.8825378,26 C35.1025437,26 35.3225497,25.9096 35.480154,25.732 C35.7737619,25.4008 35.7441611,24.896 35.4137522,24.6016 L35.4137522,24.6016 Z M32.4824728,32.4 L30.8824295,32.4 L30.8824295,28.4 C30.8824295,27.9584 30.5248198,27.6 30.0824078,27.6 L25.2822778,27.6 C24.8398658,27.6 24.4822561,27.9584 24.4822561,28.4 L24.4822561,32.4 L22.8822128,32.4 L22.8822128,24.1368 L27.6823428,19.8704 L32.4824728,24.1368 L32.4824728,32.4 Z M26.0822995,32.4 L29.2823861,32.4 L29.2823861,29.2 L26.0822995,29.2 L26.0822995,32.4 Z M22.8822128,19.6 L24.4822561,19.6 L24.4822561,20.5744 L22.8822128,21.9968 L22.8822128,19.6 Z" id="path-1"></path>
    </defs>
    <g id="Page-1" stroke="none" stroke-width="1" fill="none" fill-rule="evenodd">
        <g id="Artboard" transform="translate(-19.000000, -18.000000)">
            <mask id="mask-2" fill="white">
                <use xlink:href="#path-1"></use>
            </mask>
            <use id="Icon-Copy" fill="#2A81A5" xlink:href="#path-1"></use>
        </g>
    </g>
</svg>