<?xml version="1.0" encoding="UTF-8"?>
<svg width="17px" height="16px" viewBox="0 0 17 16" version="1.1" xmlns="http://www.w3.org/2000/svg" xmlns:xlink="http://www.w3.org/1999/xlink">
    <!-- Generator: Sketch 52.2 (67145) - http://www.bohemiancoding.com/sketch -->
    <title>Icon Copy 3</title>
    <desc>Created with Sketch.</desc>
    <defs>
        <path d="M147.831839,32.0686483 L146.963061,31.19987 L147.597445,30.5654859 C147.910237,30.2526937 147.910237,29.7471063 147.597445,29.4343141 C147.284653,29.121522 146.779066,29.121522 146.466273,29.4343141 L145.831889,30.0686983 L144.963111,29.19992 L147.031859,27.1311717 L149.900588,29.9999 L147.831839,32.0686483 Z M138.58167,29.881503 L139.950436,31.2502687 L137.896888,31.9350516 L138.58167,29.881503 Z M139.763241,24.00005 L140.397625,23.3656659 C140.710417,23.0528737 140.710417,22.5472863 140.397625,22.2344941 C140.084833,21.921702 139.579246,21.921702 139.266453,22.2344941 L138.632069,22.8688783 L137.763291,22.0001 L139.832039,19.9313517 L142.700768,22.80008 L140.632019,24.8688283 L139.763241,24.00005 Z M149.80379,20.0281493 C150.374176,20.598535 150.374176,21.5265118 149.80379,22.0968976 L149.431799,22.4688883 L147.363051,20.40014 L147.735042,20.0281493 C148.305427,19.4577636 149.233404,19.4577636 149.80379,20.0281493 L149.80379,20.0281493 Z M139.363251,28.39994 L146.231879,21.5313117 L148.300628,23.60006 L141.431999,30.4686883 L139.363251,28.39994 Z M151.597345,29.4343141 L148.163031,26 L150.934962,23.2280693 C152.129332,22.0344991 152.129332,20.0905477 150.934962,18.8969776 C149.741392,17.7034074 147.79744,17.7034074 146.60387,18.8969776 L143.831939,21.6689083 L140.397625,18.2345941 C140.084833,17.921802 139.579246,17.921802 139.266453,18.2345941 L136.066533,21.4345141 C135.753741,21.7473063 135.753741,22.2528937 136.066533,22.5656859 L139.500848,26 L137.666493,27.8343541 C137.579296,27.921552 137.512897,28.0287493 137.473698,28.1471463 L135.873738,32.9470263 C135.777741,33.2342191 135.852139,33.5518112 136.066533,33.7654059 C136.21853,33.918202 136.423324,33.9998 136.632119,33.9998 C136.716117,33.9998 136.802515,33.9862003 136.884913,33.958201 L141.684793,32.358241 C141.80319,32.319042 141.910387,32.2526437 141.997585,32.1654459 L143.831939,30.3310917 L147.266253,33.7654059 C147.422249,33.921402 147.627044,33.9998 147.831839,33.9998 C148.036634,33.9998 148.241429,33.921402 148.397425,33.7654059 L151.597345,30.5654859 C151.910137,30.2526937 151.910137,29.7471063 151.597345,29.4343141 L151.597345,29.4343141 Z" id="path-1"></path>
    </defs>
    <g id="Page-1" stroke="none" stroke-width="1" fill="none" fill-rule="evenodd">
        <g id="Artboard" transform="translate(-135.000000, -18.000000)">
            <mask id="mask-2" fill="white">
                <use xlink:href="#path-1"></use>
            </mask>
            <use id="Icon-Copy-3" fill="#2A81A5" xlink:href="#path-1"></use>
        </g>
    </g>
</svg>