<?xml version="1.0" encoding="UTF-8" standalone="no"?>
<svg
   xmlns:dc="http://purl.org/dc/elements/1.1/"
   xmlns:cc="http://creativecommons.org/ns#"
   xmlns:rdf="http://www.w3.org/1999/02/22-rdf-syntax-ns#"
   xmlns:svg="http://www.w3.org/2000/svg"
   xmlns="http://www.w3.org/2000/svg"
   xmlns:sodipodi="http://sodipodi.sourceforge.net/DTD/sodipodi-0.dtd"
   xmlns:inkscape="http://www.inkscape.org/namespaces/inkscape"
   width="40"
   height="40"
   viewBox="0 0 40 40"
   version="1.1"
   id="svg38"
   sodipodi:docname="5c6a5ced80da2a29696e136f_linkedin_steel.svg"
   inkscape:version="0.92.4 (5da689c313, 2019-01-14)">
  <metadata
     id="metadata44">
    <rdf:RDF>
      <cc:Work
         rdf:about="">
        <dc:format>image/svg+xml</dc:format>
        <dc:type
           rdf:resource="http://purl.org/dc/dcmitype/StillImage" />
        <dc:title>Group 10 Copy 4</dc:title>
      </cc:Work>
    </rdf:RDF>
  </metadata>
  <defs
     id="defs42" />
  <sodipodi:namedview
     pagecolor="#ffffff"
     bordercolor="#666666"
     borderopacity="1"
     objecttolerance="10"
     gridtolerance="10"
     guidetolerance="10"
     inkscape:pageopacity="0"
     inkscape:pageshadow="2"
     inkscape:window-width="1920"
     inkscape:window-height="1017"
     id="namedview40"
     showgrid="false"
     inkscape:zoom="20.682927"
     inkscape:cx="22.44506"
     inkscape:cy="21.938675"
     inkscape:window-x="-8"
     inkscape:window-y="-8"
     inkscape:window-maximized="1"
     inkscape:current-layer="svg38"
     fit-margin-top="0"
     fit-margin-left="0"
     fit-margin-right="0"
     fit-margin-bottom="0" />
  <!-- Generator: Sketch 52.2 (67145) - http://www.bohemiancoding.com/sketch -->
  <title
     id="title28">Group 10 Copy 4</title>
  <desc
     id="desc30">Created with Sketch.</desc>
  <g
     style="fill:none;fill-rule:evenodd;stroke:none;stroke-width:1"
     id="Group-10-Copy-4"
     transform="translate(-0.5,-0.52762794)">
    <path
       inkscape:connector-curvature="0"
       id="Oval"
       d="m 40.5,20.527628 a 20,20 0 0 1 -20,20 20,20 0 0 1 -20,-20 20,20 0 0 1 20,-20.00000006 20,20 0 0 1 20,20.00000006 z"
       style="fill:#d4aa00" />
    <g
       id="linkedin-logo"
       transform="translate(11.5,11.527628)"
       style="fill:#ffffff;fill-rule:nonzero">
      <path
         d="m 17.963123,10.547039 v 6.641082 h -3.850079 v -6.196302 c 0,-1.5565615 -0.556872,-2.6188538 -1.950473,-2.6188538 -1.063838,0 -1.696928,0.7159072 -1.975448,1.4084269 -0.101568,0.2475729 -0.127712,0.5921619 -0.127712,0.9387149 v 6.468014 H 6.2080371 c 0,0 0.05187,-10.4945015 0,-11.5818101 h 3.8509979 v 1.6416752 c -0.0078,0.012278 -0.01796,0.025517 -0.02531,0.03742 h 0.02531 v -0.03742 c 0.511643,-0.7880325 1.425383,-1.9137634 3.470617,-1.9137634 2.533907,-4.17e-5 4.433471,1.6553318 4.433471,5.2128163 z M 2.1793364,0.02330394 C 0.86178654,0.02330394 0,0.88751276 0,2.0239768 0,3.1356752 0.83685383,4.0261114 2.1282181,4.0261114 h 0.025726 c 1.3430673,0 2.1783341,-0.8902692 2.1783341,-2.0021346 C 4.3069698,0.88751276 3.4970116,0.02330394 2.1793364,0.02330394 Z M 0.22873782,17.188121 H 4.0786496 V 5.6063109 H 0.22873782 Z"
         id="LinkedIn"
         inkscape:connector-curvature="0"
         sodipodi:nodetypes="sccsscscccccccccssssscsccccc" />
    </g>
  </g>
</svg>
