<?xml version="1.0" encoding="UTF-8" standalone="no"?>
<svg
   xmlns:dc="http://purl.org/dc/elements/1.1/"
   xmlns:cc="http://creativecommons.org/ns#"
   xmlns:rdf="http://www.w3.org/1999/02/22-rdf-syntax-ns#"
   xmlns:svg="http://www.w3.org/2000/svg"
   xmlns="http://www.w3.org/2000/svg"
   xmlns:sodipodi="http://sodipodi.sourceforge.net/DTD/sodipodi-0.dtd"
   xmlns:inkscape="http://www.inkscape.org/namespaces/inkscape"
   width="40"
   height="40"
   viewBox="0 0 40 40"
   version="1.1"
   id="svg4653"
   sodipodi:docname="5c6a5d0b954098fc3a76ef59_twitter_steel.svg"
   inkscape:version="0.92.4 (5da689c313, 2019-01-14)">
  <metadata
     id="metadata4659">
    <rdf:RDF>
      <cc:Work
         rdf:about="">
        <dc:format>image/svg+xml</dc:format>
        <dc:type
           rdf:resource="http://purl.org/dc/dcmitype/StillImage" />
        <dc:title>Twitter_Social_Icon_Circle_Color Copy 5</dc:title>
      </cc:Work>
    </rdf:RDF>
  </metadata>
  <defs
     id="defs4657" />
  <sodipodi:namedview
     pagecolor="#ffffff"
     bordercolor="#666666"
     borderopacity="1"
     objecttolerance="10"
     gridtolerance="10"
     guidetolerance="10"
     inkscape:pageopacity="0"
     inkscape:pageshadow="2"
     inkscape:window-width="1920"
     inkscape:window-height="1017"
     id="namedview4655"
     showgrid="false"
     fit-margin-top="0"
     fit-margin-left="0"
     fit-margin-right="0"
     fit-margin-bottom="0"
     inkscape:zoom="16.280702"
     inkscape:cx="15.996555"
     inkscape:cy="22.376102"
     inkscape:window-x="-8"
     inkscape:window-y="-8"
     inkscape:window-maximized="1"
     inkscape:current-layer="svg4653" />
  <!-- Generator: Sketch 52.2 (67145) - http://www.bohemiancoding.com/sketch -->
  <title
     id="title4642">Twitter_Social_Icon_Circle_Color Copy 5</title>
  <desc
     id="desc4644">Created with Sketch.</desc>
  <g
     id="Page-1"
     style="fill:none;fill-rule:evenodd;stroke:none;stroke-width:1"
     transform="translate(-0.69027,-0.73585)">
    <g
       id="Artboard"
       transform="translate(-390,-223)">
      <g
         id="Twitter_Social_Icon_Circle_Color-Copy-5"
         transform="translate(390.69027,223.73585)">
        <g
           id="Dark_Blue"
           style="fill:#2a81a5">
          <circle
             id="Oval"
             cx="20"
             cy="20"
             r="20"
             style="fill:#d4aa00" />
        </g>
        <g
           id="Logo__x2014__FIXED"
           transform="translate(11,12.569464)"
           style="fill:#ffffff">
          <path
             d="m 6.2608739,16.115018 c 7.4642411,0 11.5455901,-6.1851374 11.5455901,-11.5455899 0,-0.1767182 0,-0.3534364 -0.0084,-0.5217395 C 18.589073,3.4754582 19.279116,2.7601702 19.826101,1.9439004 19.102397,2.2636762 18.319788,2.4824702 17.495103,2.583452 18.336619,2.0785428 18.97617,1.2875184 19.279116,0.33660612 18.496506,0.79943954 17.629746,1.1360457 16.704079,1.321179 15.963545,0.53015464 14.911651,0.04207577 13.741945,0.04207577 c -2.238431,0 -4.0561038,1.81767303 -4.0561038,4.05610373 0,0.3197759 0.033661,0.6311365 0.109397,0.9256669 C 6.4207618,4.8555433 3.4333825,3.2398339 1.430576,0.78260924 1.0855547,1.3800851 0.88359107,2.0785428 0.88359107,2.8190763 c 0,1.4053305 0.71528803,2.6507732 1.80925793,3.3744764 C 2.0280519,6.1767224 1.4053306,5.991589 0.85834561,5.6886435 c 0,0.01683 0,0.033661 0,0.050491 0,1.9691458 1.39691539,3.6016855 3.25666429,3.9803674 -0.3366062,0.092567 -0.6984578,0.1430576 -1.0687245,0.1430576 -0.2608697,0 -0.5133243,-0.025245 -0.7657789,-0.075736 0.5133243,1.6157095 2.0112216,2.7854165 3.7868189,2.8190765 -1.3885003,1.085555 -3.1388521,1.733522 -5.0406767,1.733522 -0.32819099,0 -0.64796681,-0.01683 -0.96774263,-0.05891 1.77559733,1.161291 3.91304623,1.834503 6.20196783,1.834503"
             id="Path"
             inkscape:connector-curvature="0" />
        </g>
      </g>
    </g>
  </g>
</svg>
